<svg xmlns="http://www.w3.org/2000/svg" width="52.373" height="60.998" viewBox="0 0 52.373 60.998">
  <g id="Group_74117" data-name="Group 74117" transform="translate(-168.114 -2750.942)">
    <circle id="Ellipse_14" data-name="Ellipse 14" cx="7.008" cy="7.008" r="7.008" transform="translate(186.743 2752.442)" fill="none" stroke="#e1443b" stroke-linecap="round" stroke-linejoin="round" stroke-width="3"/>
    <path id="Path_38021" data-name="Path 38021" d="M188.167,2782.426h0a7.249,7.249,0,0,0-6.813-4.772h-8.987a2.753,2.753,0,0,1-2.753-2.753h0a2.753,2.753,0,0,1,2.753-2.753h43.95a2.669,2.669,0,0,1,2.67,2.669h0a2.669,2.669,0,0,1-2.67,2.669h-14.4s-4.947,8.134,4.538,17.619l8.5,10.183a2.67,2.67,0,0,1,0,3.775l-.186.186a2.67,2.67,0,0,1-3.681.089l-17.361-15.3-16.341,15.369a2.741,2.741,0,0,1-3.852-.024h0a2.742,2.742,0,0,1-.088-3.786l14.66-16.087" fill="none" stroke="#000" stroke-linecap="round" stroke-linejoin="round" stroke-width="3"/>
  </g>
</svg>
