<svg xmlns="http://www.w3.org/2000/svg" width="32" height="32" viewBox="0 0 32 32">
  <path id="calendar004_-_E144" data-name="calendar004 - E144" d="M29.852,10.085H24.068V8.558a.977.977,0,1,0-1.953,0v1.527H11.047V8.558a.977.977,0,1,0-1.953,0v1.527H3.31A2.736,2.736,0,0,0,.581,12.814V36.852A2.736,2.736,0,0,0,3.31,39.581H29.852a2.736,2.736,0,0,0,2.729-2.729V12.814A2.736,2.736,0,0,0,29.852,10.085ZM3.31,12.038H9.094v1.527a.977.977,0,1,0,1.953,0V12.038H22.115v1.527a.977.977,0,0,0,1.953,0V12.038h5.784a.78.78,0,0,1,.776.776v4.207H2.534V12.814A.78.78,0,0,1,3.31,12.038Zm26.542,25.59H3.31a.78.78,0,0,1-.776-.776V18.974H30.628V36.852A.78.78,0,0,1,29.852,37.628ZM12.55,22.78A1.477,1.477,0,1,1,11.072,21.3,1.464,1.464,0,0,1,12.55,22.78Zm5.509,0A1.477,1.477,0,1,1,16.581,21.3,1.464,1.464,0,0,1,18.058,22.78Zm5.509.025a1.477,1.477,0,1,1-1.477-1.477A1.464,1.464,0,0,1,23.567,22.8Zm5.509,0A1.477,1.477,0,1,1,27.6,21.328,1.464,1.464,0,0,1,29.076,22.8ZM12.55,28.288a1.477,1.477,0,1,1-1.477-1.477A1.464,1.464,0,0,1,12.55,28.288Zm-5.509.025a1.477,1.477,0,1,1-1.477-1.477A1.464,1.464,0,0,1,7.041,28.313Zm11.017,0a1.477,1.477,0,1,1-1.477-1.477A1.464,1.464,0,0,1,18.058,28.313Zm5.509,0a1.477,1.477,0,1,1-1.477-1.477A1.464,1.464,0,0,1,23.567,28.313Zm5.509,0A1.477,1.477,0,1,1,27.6,26.836,1.464,1.464,0,0,1,29.076,28.313ZM12.55,33.8a1.477,1.477,0,1,1-1.477-1.477A1.464,1.464,0,0,1,12.55,33.8Zm-5.509.025a1.477,1.477,0,1,1-1.477-1.477A1.464,1.464,0,0,1,7.041,33.822Zm11.017,0a1.477,1.477,0,1,1-1.477-1.477A1.464,1.464,0,0,1,18.058,33.822Z" transform="translate(-0.581 -7.581)" fill="#fff"/>
</svg>
