<svg xmlns="http://www.w3.org/2000/svg" width="60" height="60" viewBox="0 0 60 60">
  <g id="Group_74059" data-name="Group 74059" transform="translate(-1.17 -0.2)">
    <path id="Path_37964" data-name="Path 37964" d="M3.625,7.173A6.622,6.622,0,0,0,1.54,10.357a8.907,8.907,0,0,0-.345,3.27,15.393,15.393,0,0,0,1.183,4.711A67.048,67.048,0,0,0,9.608,30.82,117.194,117.194,0,0,0,19.09,42.536a111.037,111.037,0,0,0,12.4,9.889c2.124,1.458,4.193,2.76,6.151,3.874a48.228,48.228,0,0,0,5.445,2.706A14.428,14.428,0,0,0,48.462,60.2h0a7.786,7.786,0,0,0,3.968-.99,6.106,6.106,0,0,0,1.787-1.545,1.164,1.164,0,0,1,.078-.093c.5-.522,3.121-3.267,5.34-6.013a6.824,6.824,0,0,0,1.415-2.691,4.058,4.058,0,0,0,.024-1.83,3.746,3.746,0,0,0-.718-1.5,3.993,3.993,0,0,0-1.069-.954,1.087,1.087,0,0,1-.1-.066c-1.517-1.155-9.17-6.979-10.978-8.209a5.166,5.166,0,0,0-2.922-.984,3.883,3.883,0,0,0-2.379.762.782.782,0,0,1-.093.081l-4.767,3.76a1.088,1.088,0,0,1-.676.234,1.074,1.074,0,0,1-.658-.222c-2.253-1.7-5.752-4.807-8.053-6.97l-.045-.045c-1.742-1.845-5.214-5.659-7.172-8.248a1.084,1.084,0,0,1,.009-1.323l3.589-4.615a.6.6,0,0,1,.057-.066,3.8,3.8,0,0,0,.9-2.079,4.987,4.987,0,0,0-.97-3.445C24.247,11.986,21.256,8,16.831,2.192l-.012-.015a1.086,1.086,0,0,1-.066-.1A3.943,3.943,0,0,0,15.495.791,3.787,3.787,0,0,0,13.428.2,5.913,5.913,0,0,0,9.764,1.727c-2.9,2.34-5.755,5.08-6.07,5.386C3.67,7.134,3.646,7.152,3.625,7.173Zm1.412,5.5a3.278,3.278,0,0,1,.76-2.3,1.071,1.071,0,0,1,.159-.123,2.013,2.013,0,0,0,.336-.264h0c.234-.225,3.109-2.982,5.914-5.248a3.069,3.069,0,0,1,.252-.192,1.089,1.089,0,0,1,1.484.237c1.9,2.5,6.488,8.524,7.884,10.568a1.089,1.089,0,0,1-.039,1.284L17.06,22.691a1.939,1.939,0,0,0-.177,2.115,43.394,43.394,0,0,0,4.791,6.211c2.105,2.415,4.028,4.441,4.238,4.66.3.285,2.247,2.115,4.523,4.093a43.182,43.182,0,0,0,6.172,4.741,1.953,1.953,0,0,0,2.13-.18l6.028-4.765a1.088,1.088,0,0,1,.676-.234,1.1,1.1,0,0,1,.616.189c1.781,1.218,9.638,7.2,10.527,7.873a1.086,1.086,0,0,1,.216,1.512c-.048.066-.1.132-.171.219-2.277,2.814-5.007,5.647-5.253,5.9h0c-.024.024-.045.048-.066.066s-.057.057-.066.069-.015.021-.036.06a.985.985,0,0,1-.093.135,3.236,3.236,0,0,1-2.643.966h0a10.615,10.615,0,0,1-3.908-.906,45.261,45.261,0,0,1-5.2-2.6c-1.847-1.059-3.809-2.3-5.833-3.694s-4.031-2.88-6-4.444c-2.012-1.6-3.92-3.231-5.668-4.849-.021-.018-.039-.039-.06-.06-1.667-1.8-3.34-3.748-4.977-5.791-1.595-1.992-3.115-4.033-4.517-6.064S9.65,23.907,8.584,22.055a44.827,44.827,0,0,1-2.61-5.194A10.611,10.611,0,0,1,5.036,12.673Z" transform="translate(0 0)"/>
    <g id="Group_74058" data-name="Group 74058" transform="translate(33.257 0.863)">
      <path id="Path_37965" data-name="Path 37965" d="M1133.791,414.835l.009,0a8.737,8.737,0,0,0-.06-3.09,11.634,11.634,0,0,0-3.317-6.1l0,0,0,0a11.644,11.644,0,0,0-6.1-3.317,8.739,8.739,0,0,0-3.09-.06l0,.009a1.851,1.851,0,0,0,.74,3.627,5.5,5.5,0,0,1,1.687.072,8.54,8.54,0,0,1,6.44,6.44,5.386,5.386,0,0,1,.072,1.687,1.849,1.849,0,1,0,3.624.737Z" transform="translate(-1118.08 -390.82)" fill="#e1443b"/>
      <path id="Path_37966" data-name="Path 37966" d="M1090.9,48.09l.009,0a7.109,7.109,0,0,0,.1-1.293h-.006a15.715,15.715,0,0,0-.836-4.819,24.167,24.167,0,0,0-2.418-5.2,33.508,33.508,0,0,0-4.917-6.159l-.021-.021-.021-.021a33.313,33.313,0,0,0-6.159-4.917,24.233,24.233,0,0,0-5.2-2.418,15.715,15.715,0,0,0-4.818-.836V22.4a7.107,7.107,0,0,0-1.293.1l0,.009a1.851,1.851,0,0,0,.74,3.627,4.077,4.077,0,0,1,.472-.033h-.018a11.931,11.931,0,0,1,4.024.746,21.012,21.012,0,0,1,4.35,2.087,31.691,31.691,0,0,1,9.58,9.58,21.322,21.322,0,0,1,2.087,4.35,11.833,11.833,0,0,1,.746,4.024v-.018h0v0h0a4.081,4.081,0,0,1-.033.472,1.851,1.851,0,0,0,3.627.74Z" transform="translate(-1063.849 -22.4)" fill="#e1443b"/>
    </g>
  </g>
</svg>
