<svg xmlns="http://www.w3.org/2000/svg" width="40.027" height="63.74" viewBox="0 0 40.027 63.74">
  <g id="Group_73908" data-name="Group 73908" transform="translate(1.5 1.5)">
    <circle id="Ellipse_15" data-name="Ellipse 15" cx="6.421" cy="6.421" r="6.421" transform="translate(22.52 1.133)" fill="none" stroke="#ff6158" stroke-linecap="round" stroke-linejoin="round" stroke-width="3"/>
    <circle id="Ellipse_16" data-name="Ellipse 16" cx="2.455" cy="2.455" r="2.455" transform="translate(14.352)" fill="none" stroke="#ff6158" stroke-linecap="round" stroke-linejoin="round" stroke-width="3"/>
    <path id="Path_37914" data-name="Path 37914" d="M367.65,2491.612v-28.659a5.052,5.052,0,0,0-5.611-5.072,10.154,10.154,0,0,0-2.424.664c-6.181,2.472-12.361,10.507-12.361,19.469v15.143H362.4" transform="translate(-347.254 -2445.883)" fill="none" stroke="#007ce2" stroke-linecap="round" stroke-linejoin="round" stroke-width="3"/>
    <path id="Path_37915" data-name="Path 37915" d="M360.871,2464.063l1.308,4.448a8.061,8.061,0,0,0,2.034,3.427l11.388,7.989" transform="translate(-340.462 -2448.141)" fill="none" stroke="#007ce2" stroke-linecap="round" stroke-linejoin="round" stroke-width="3"/>
    <path id="Path_37916" data-name="Path 37916" d="M371.424,2481.934s1.7-2.492,3.694-1.465a2.4,2.4,0,0,1,1.216,2.155v19.329" transform="translate(-339.307 -2442.152)" fill="none" stroke="#007ce2" stroke-linecap="round" stroke-linejoin="round" stroke-width="3"/>
    <line id="Line_3318" data-name="Line 3318" y2="7.176" transform="translate(9.82 53.563)" fill="none" stroke="#007ce2" stroke-linecap="round" stroke-linejoin="round" stroke-width="3"/>
  </g>
</svg>
