<svg xmlns="http://www.w3.org/2000/svg" width="40.008" height="39.487" viewBox="0 0 40.008 39.487">
  <g id="np_hospital_3549756_000000" transform="translate(-18.999 -18.997)">
    <path id="Path_38235" data-name="Path 38235" d="M55.7,30.594,40.947,20.755a4,4,0,0,0-4.443,0L21.747,30.594A3.9,3.9,0,0,0,20,33.856V52.491a5,5,0,0,0,4.994,4.994H52.458a5,5,0,0,0,4.994-4.994V33.856A3.9,3.9,0,0,0,55.7,30.594Zm-2,21.9a1.249,1.249,0,0,1-1.248,1.248H24.993a1.248,1.248,0,0,1-1.248-1.248V33.856a.167.167,0,0,1,.076-.141l14.762-9.846a.267.267,0,0,1,.288,0l14.762,9.846a.167.167,0,0,1,.076.141Z" transform="translate(0 0)" fill="#c4c4c4" stroke="#000" stroke-width="2"/>
    <path id="Path_38236" data-name="Path 38236" d="M47.363,42H43.618v5.618H38v3.745h5.618v5.618h3.745V51.363h5.618V47.618H47.363Z" transform="translate(-6.764 -8.236)" fill="#c4c4c4" stroke="#000" stroke-width="2"/>
  </g>
</svg>
