<svg xmlns="http://www.w3.org/2000/svg" width="327" height="90.855" viewBox="0 0 327 90.855">
  <g id="Group_74118" data-name="Group 74118" transform="translate(-335.721 -485.494)">
    <g id="Group_74120" data-name="Group 74120" transform="translate(335.721 485.494)">
      <g id="Group_74118-2" data-name="Group 74118" transform="translate(2.771 17.467)">
        <path id="Path_38022" data-name="Path 38022" d="M403.131,573.411c2.387-1.344,4.989-3.622,4.217-6.7-.289-2.571-3.249-4.873-5.2-6.121a20.308,20.308,0,0,0-5.08-2.342,20.636,20.636,0,0,0-2.739-.621,19.375,19.375,0,0,1-2.668-.368c-.922-.278-1.995-.977-1.887-2.058a2.4,2.4,0,0,1,.489-1.1c1.471-2.1,4.03-3.692,4.284-6.237a8.08,8.08,0,0,0,9.265,2.292,7.955,7.955,0,0,0,4.563-8.316,19.121,19.121,0,0,1-5.344,3.794,6.535,6.535,0,0,1-6.3-.44c-1.856-1.394-2.416-3.856-3.261-6.006a10.709,10.709,0,0,0-4.246-5.39,6.318,6.318,0,0,0-3.264-.834,13.217,13.217,0,0,0-4.4.9c-3.924,1.415-8.733,4.229-10.244,8.334a3.415,3.415,0,0,0,.188,3.17,4.279,4.279,0,0,1,.513-1.73,12.184,12.184,0,0,1,5.626-5.375,22.674,22.674,0,0,1,3.858-1.445,8.559,8.559,0,0,1,4.614.109,3.783,3.783,0,0,1,2.664,3.193A13.681,13.681,0,0,1,387,547.785c-.523,1.013-1.093,2-1.686,2.975-.3.488-.6.973-.9,1.457-1.417,2.248-5.161,5.084-1.467,7.98a6.85,6.85,0,0,0,2.671,1.243,51.877,51.877,0,0,1,8.624,2.73c1.768.761,4,1.581,5.428,2.9a2.659,2.659,0,0,1,.742,1.078,2.608,2.608,0,0,1-.335,2.1c-2.347,3.945-7.414,6.228-11.543,7.765-1.514.564-2.809,1.021-4.517,1.527-.918.271-2.478.713-3.552,1.025a.169.169,0,0,0,.073.328c1.427-.157,3.666-.548,5.009-.852a62.143,62.143,0,0,0,6.167-1.637A67.208,67.208,0,0,0,403.131,573.411Z" transform="translate(-351.209 -520.057)" fill="#fff"/>
        <path id="Path_38023" data-name="Path 38023" d="M370.382,583.858c.1-.744.014-1.989-.681-2.252a2.152,2.152,0,0,0-.653-.074h-.088a4.177,4.177,0,0,0-1.277.185c-3.106,1.092-5.147,3.527-7.3,5.823s-4.389,4.485-6.529,6.773c-.714.765-1.557,1.4-2.281,2.15-.772.8-1.575,1.564-2.378,2.342-1.239,1.2-2.413,2.463-3.644,3.671s-2.479,2.33-3.631,3.588q-.262.288-.52.579a11.457,11.457,0,0,0-1.013,1.273,1.482,1.482,0,0,0-.331.71c.024.466.617.128.808-.046a25.837,25.837,0,0,1,3.691-3.074c1.453-.9,2.873-1.852,4.35-2.72,2.386-1.406,4.828-2.717,7.281-4.007,1.171-.618,2.346-1.231,3.474-1.925a27.844,27.844,0,0,0,6.963-6.105c.935-1.148,1.893-2.335,2.735-3.547A6.577,6.577,0,0,0,370.382,583.858Z" transform="translate(-340.051 -537.551)" fill="#fff"/>
        <path id="Path_38024" data-name="Path 38024" d="M399.827,519.949c0,3.272,2.178,5.925,4.864,5.925,2.22,0,4.088-1.813,4.671-4.29l.01-.031a8.269,8.269,0,0,0-.028-3.864A7.8,7.8,0,0,0,408.208,515a5.131,5.131,0,0,0-2.232-1.856,5.017,5.017,0,0,0-1.894-.351,6.281,6.281,0,0,0-1.04.088,9.849,9.849,0,0,0-2.8.989c-1.616.819-3.156,2-3.515,3.869a.66.66,0,0,0-.01.287c.054.21.443-.676,1.02-1.141a7.194,7.194,0,0,1,4.1-1.841C400.305,516.042,399.827,517.682,399.827,519.949Z" transform="translate(-360.456 -512.794)" fill="#fff"/>
      </g>
      <g id="Group_74119" data-name="Group 74119">
        <path id="Path_38025" data-name="Path 38025" d="M426.571,532.06a45.9,45.9,0,0,0-8.006-26.84,46.936,46.936,0,0,0-47.547-18.776,44.5,44.5,0,0,0-26.885,17.234c-7.6,10.583-9.356,20.1-7.99,33.026.409,3.868,1.965,11.8,4.241,14.412a28.62,28.62,0,0,1-1.645-8,50.568,50.568,0,0,1-.316-9.172,44.179,44.179,0,0,1,3.127-14.233,42.513,42.513,0,0,1,33.874-26.052c28.106-3.289,49.559,26.319,38.923,52.406A33.126,33.126,0,0,1,400.44,561.8c-5.853,3.458-15.325,6.93-21.915,3.721-.065-.032-.111-.069-.186-.043-2.3.774-2.468,3.619-2.291,5.635.209,2.37.517,4.877,3.4,5.126a41.477,41.477,0,0,0,14.944-1.859A46.928,46.928,0,0,0,412.911,563.9a40.638,40.638,0,0,0,3.19-3.314A44.811,44.811,0,0,0,426.571,532.06Z" transform="translate(-335.721 -485.494)" fill="#fff"/>
      </g>
    </g>
    <g id="Group_74132" data-name="Group 74132" transform="translate(453.054 505.921)">
      <g id="Group_74130" data-name="Group 74130" transform="translate(0)">
        <g id="Group_74121" data-name="Group 74121" transform="translate(0 0.39)">
          <path id="Path_38026" data-name="Path 38026" d="M534.17,519.035a7.787,7.787,0,0,1,3.422,2.854,8.557,8.557,0,0,1,0,8.741,7.648,7.648,0,0,1-3.422,2.855,12.791,12.791,0,0,1-5.239.989H525a.64.64,0,0,0-.64.64v4.98a.64.64,0,0,1-.64.64h-3.975a.64.64,0,0,1-.64-.64V518.669a.64.64,0,0,1,.64-.64h9.188A12.61,12.61,0,0,1,534.17,519.035Zm-1.93,10.136a3.558,3.558,0,0,0,1.233-2.9,3.594,3.594,0,0,0-1.233-2.936,5.516,5.516,0,0,0-3.6-1.022H525a.64.64,0,0,0-.64.64v6.6a.64.64,0,0,0,.64.64h3.641A5.52,5.52,0,0,0,532.239,529.171Z" transform="translate(-519.103 -518.029)" fill="#fff"/>
        </g>
        <g id="Group_74122" data-name="Group 74122" transform="translate(23.744 0.39)">
          <path id="Path_38027" data-name="Path 38027" d="M571.015,540.735a.639.639,0,0,1-.526-.276l-4.189-6.05h-4.193a.64.64,0,0,0-.64.64v5.046a.64.64,0,0,1-.64.64h-3.975a.64.64,0,0,1-.64-.64V518.669a.639.639,0,0,1,.64-.64h9.188a12.609,12.609,0,0,1,5.238,1.006,7.785,7.785,0,0,1,3.422,2.854,7.867,7.867,0,0,1,1.2,4.379,7.707,7.707,0,0,1-1.216,4.362,7.5,7.5,0,0,1-2.81,2.5.634.634,0,0,0-.217.924l3.962,5.678a.64.64,0,0,1-.525,1.006Zm-1.665-17.4a5.517,5.517,0,0,0-3.6-1.022h-3.642a.64.64,0,0,0-.64.64v6.634a.64.64,0,0,0,.64.64h3.642a5.455,5.455,0,0,0,3.6-1.038,4.091,4.091,0,0,0,0-5.854Z" transform="translate(-556.213 -518.029)" fill="#fff"/>
        </g>
        <g id="Group_74123" data-name="Group 74123" transform="translate(45.735)">
          <path id="Path_38028" data-name="Path 38028" d="M596.633,539.38a11.3,11.3,0,0,1-4.444-4.2,12.083,12.083,0,0,1,0-12.034,11.318,11.318,0,0,1,4.444-4.2,14.05,14.05,0,0,1,12.731,0,11.581,11.581,0,0,1,0,20.435,14.05,14.05,0,0,1-12.731,0Zm10.006-3.875a6.639,6.639,0,0,0,2.547-2.578,8.12,8.12,0,0,0,0-7.526,6.626,6.626,0,0,0-2.547-2.579,7.594,7.594,0,0,0-7.265,0,6.621,6.621,0,0,0-2.547,2.579,8.119,8.119,0,0,0,0,7.526,6.634,6.634,0,0,0,2.547,2.578,7.6,7.6,0,0,0,7.265,0Z" transform="translate(-590.584 -517.42)" fill="#fff"/>
        </g>
        <g id="Group_74124" data-name="Group 74124" transform="translate(83.718 0.39)">
          <path id="Path_38029" data-name="Path 38029" d="M665.014,519.035a7.786,7.786,0,0,1,3.422,2.854,8.557,8.557,0,0,1,0,8.741,7.647,7.647,0,0,1-3.422,2.855,12.793,12.793,0,0,1-5.239.989h-3.933a.639.639,0,0,0-.64.64v4.98a.64.64,0,0,1-.64.64h-3.975a.64.64,0,0,1-.64-.64V518.669a.64.64,0,0,1,.64-.64h9.188A12.612,12.612,0,0,1,665.014,519.035Zm-1.93,10.136a3.56,3.56,0,0,0,1.233-2.9,3.6,3.6,0,0,0-1.233-2.936,5.517,5.517,0,0,0-3.6-1.022h-3.641a.64.64,0,0,0-.64.64v6.6a.639.639,0,0,0,.64.64h3.641A5.52,5.52,0,0,0,663.083,529.171Z" transform="translate(-649.947 -518.029)" fill="#fff"/>
        </g>
        <g id="Group_74125" data-name="Group 74125" transform="translate(107.461 0.39)">
          <path id="Path_38030" data-name="Path 38030" d="M707.88,518.669v21.426a.64.64,0,0,1-.64.64h-3.975a.64.64,0,0,1-.64-.64v-8.03a.64.64,0,0,0-.64-.64h-9.035a.64.64,0,0,0-.64.64v8.03a.64.64,0,0,1-.64.64H687.7a.64.64,0,0,1-.64-.64V518.669a.64.64,0,0,1,.64-.64h3.975a.64.64,0,0,1,.64.64v7.673a.64.64,0,0,0,.64.64h9.035a.64.64,0,0,0,.64-.64v-7.673a.64.64,0,0,1,.64-.64h3.975A.64.64,0,0,1,707.88,518.669Z" transform="translate(-687.056 -518.029)" fill="#fff"/>
        </g>
        <g id="Group_74126" data-name="Group 74126" transform="translate(131.014 0.39)">
          <path id="Path_38031" data-name="Path 38031" d="M737.422,532.868v7.227a.64.64,0,0,1-.64.64h-3.975a.64.64,0,0,1-.64-.64V532.8a.638.638,0,0,0-.091-.33L723.961,519a.64.64,0,0,1,.548-.969h4.085a.638.638,0,0,1,.548.31l5.331,8.866a.64.64,0,0,0,1.1,0l5.33-8.866a.641.641,0,0,1,.548-.31h3.664a.639.639,0,0,1,.548.969l-8.147,13.54A.637.637,0,0,0,737.422,532.868Z" transform="translate(-723.868 -518.029)" fill="#fff"/>
        </g>
        <g id="Group_74127" data-name="Group 74127" transform="translate(153.29)">
          <path id="Path_38032" data-name="Path 38032" d="M762.563,540.175a13,13,0,0,1-3.612-1.593.631.631,0,0,1-.21-.784L760,535.011a.633.633,0,0,1,.912-.283,12.674,12.674,0,0,0,2.87,1.311,13.017,13.017,0,0,0,4.022.648,6.422,6.422,0,0,0,3.309-.665,2.008,2.008,0,0,0,1.07-1.767,1.691,1.691,0,0,0-.633-1.346,4.8,4.8,0,0,0-1.621-.86q-.99-.323-2.676-.713A36.741,36.741,0,0,1,763,530.1a6.891,6.891,0,0,1-2.838-1.978,5.338,5.338,0,0,1-1.184-3.633,6.323,6.323,0,0,1,1.07-3.584,7.2,7.2,0,0,1,3.228-2.546,13.156,13.156,0,0,1,5.27-.941,17.482,17.482,0,0,1,4.25.52,13.007,13.007,0,0,1,3.156,1.211.633.633,0,0,1,.268.794l-1.145,2.817a.642.642,0,0,1-.894.321,12.378,12.378,0,0,0-5.666-1.446,5.9,5.9,0,0,0-3.26.713,2.178,2.178,0,0,0-1.054,1.882,1.839,1.839,0,0,0,1.217,1.735,19.134,19.134,0,0,0,3.714,1.119,37.164,37.164,0,0,1,4.249,1.232,7.048,7.048,0,0,1,2.838,1.946,5.218,5.218,0,0,1,1.184,3.6,6.2,6.2,0,0,1-1.087,3.552,7.3,7.3,0,0,1-3.26,2.547,13.29,13.29,0,0,1-5.287.941A18.581,18.581,0,0,1,762.563,540.175Z" transform="translate(-758.683 -517.42)" fill="#fff"/>
        </g>
        <g id="Group_74128" data-name="Group 74128" transform="translate(175.609 0.39)">
          <path id="Path_38033" data-name="Path 38033" d="M794.206,518.029h3.975a.64.64,0,0,1,.64.64v21.426a.64.64,0,0,1-.64.64h-3.975a.64.64,0,0,1-.64-.64V518.669A.64.64,0,0,1,794.206,518.029Z" transform="translate(-793.566 -518.029)" fill="#fff"/>
        </g>
        <g id="Group_74129" data-name="Group 74129" transform="translate(184.821)">
          <path id="Path_38034" data-name="Path 38034" d="M814.013,539.38a11.3,11.3,0,0,1-4.444-4.2,12.079,12.079,0,0,1,0-12.034,11.317,11.317,0,0,1,4.444-4.2,14.051,14.051,0,0,1,12.731,0,11.581,11.581,0,0,1,0,20.435,14.051,14.051,0,0,1-12.731,0Zm10.006-3.875a6.639,6.639,0,0,0,2.547-2.578,8.119,8.119,0,0,0,0-7.526,6.626,6.626,0,0,0-2.547-2.579,7.594,7.594,0,0,0-7.265,0,6.621,6.621,0,0,0-2.547,2.579,8.119,8.119,0,0,0,0,7.526,6.633,6.633,0,0,0,2.547,2.578,7.6,7.6,0,0,0,7.265,0Z" transform="translate(-807.963 -517.42)" fill="#fff"/>
        </g>
      </g>
      <g id="Group_74131" data-name="Group 74131" transform="translate(0.177 38.962)">
        <path id="Path_38035" data-name="Path 38035" d="M519.38,589.439V578.506h4.484a4.1,4.1,0,0,1,2.6.745,2.8,2.8,0,0,1,.43,3.716,2.781,2.781,0,0,1-1.42.929v-.123a2.674,2.674,0,0,1,1.612.906,2.708,2.708,0,0,1,.584,1.781,2.67,2.67,0,0,1-.96,2.2,4.21,4.21,0,0,1-2.71.775Zm1.4-6.142h2.855a2.924,2.924,0,0,0,1.8-.461,1.634,1.634,0,0,0,.6-1.382,1.588,1.588,0,0,0-.591-1.344,2.955,2.955,0,0,0-1.8-.453h-2.855Zm0,4.99h3.1a2.946,2.946,0,0,0,1.827-.46,1.71,1.71,0,0,0,.583-1.429,1.745,1.745,0,0,0-.591-1.443,2.876,2.876,0,0,0-1.82-.476h-3.1Z" transform="translate(-519.38 -578.383)" fill="#fff"/>
        <path id="Path_38036" data-name="Path 38036" d="M536.972,589.439V578.506h6.987v1.167h-5.59V583.3h5.282v1.182h-5.282v3.793h5.59v1.167Z" transform="translate(-525.716 -578.383)" fill="#fff"/>
        <path id="Path_38037" data-name="Path 38037" d="M552.332,589.439V578.506h1.412v9.736h5.406v1.2Z" transform="translate(-531.248 -578.383)" fill="#fff"/>
        <path id="Path_38038" data-name="Path 38038" d="M566.684,589.439V578.506H568.1v10.933Z" transform="translate(-536.418 -578.383)" fill="#fff"/>
        <path id="Path_38039" data-name="Path 38039" d="M574.219,589.439V578.506h6.987v1.167h-5.59V583.3H580.9v1.182h-5.282v3.793h5.59v1.167Z" transform="translate(-539.131 -578.383)" fill="#fff"/>
        <path id="Path_38040" data-name="Path 38040" d="M592.306,589.439l-4.79-10.933h1.49l4.192,9.751h-.537l4.193-9.751h1.474l-4.806,10.933Z" transform="translate(-543.921 -578.383)" fill="#fff"/>
        <path id="Path_38041" data-name="Path 38041" d="M607.627,589.439V578.506h6.987v1.167h-5.59V583.3h5.282v1.182h-5.282v3.793h5.59v1.167Z" transform="translate(-551.164 -578.383)" fill="#fff"/>
        <path id="Path_38042" data-name="Path 38042" d="M632.237,589.439v-4.914l.306.967-4.637-6.987h1.658l3.624,5.636h-.461l3.639-5.636H638l-4.622,6.987.292-.967v4.914Z" transform="translate(-558.468 -578.383)" fill="#fff"/>
        <path id="Path_38043" data-name="Path 38043" d="M650.823,589.494a5.119,5.119,0,0,1-2.679-.676,4.488,4.488,0,0,1-1.744-1.935,7.6,7.6,0,0,1-.008-5.966,4.451,4.451,0,0,1,1.736-1.927,5.677,5.677,0,0,1,5.375,0,4.45,4.45,0,0,1,1.735,1.927,7.594,7.594,0,0,1-.008,5.966,4.5,4.5,0,0,1-1.736,1.935A5.077,5.077,0,0,1,650.823,589.494Zm0-1.183a3.208,3.208,0,0,0,2.618-1.144,5.026,5.026,0,0,0,.945-3.279,4.961,4.961,0,0,0-.945-3.263,3.611,3.611,0,0,0-5.251.008,4.966,4.966,0,0,0-.944,3.255,5.031,5.031,0,0,0,.944,3.271A3.216,3.216,0,0,0,650.823,588.311Z" transform="translate(-564.908 -578.314)" fill="#fff"/>
        <path id="Path_38044" data-name="Path 38044" d="M670.483,589.563a4.425,4.425,0,0,1-3.278-1.121,4.52,4.52,0,0,1-1.113-3.318v-6.618h1.4v6.726a3.282,3.282,0,0,0,.76,2.358,2.958,2.958,0,0,0,2.234.79,2.9,2.9,0,0,0,2.211-.8,3.3,3.3,0,0,0,.752-2.349v-6.726h1.413v6.618a4.522,4.522,0,0,1-1.113,3.309A4.386,4.386,0,0,1,670.483,589.563Z" transform="translate(-572.221 -578.383)" fill="#fff"/>
        <path id="Path_38045" data-name="Path 38045" d="M697.043,589.494a5.306,5.306,0,0,1-2.733-.676,4.481,4.481,0,0,1-1.773-1.935,6.687,6.687,0,0,1-.623-2.994,6.584,6.584,0,0,1,.623-2.978,4.5,4.5,0,0,1,1.773-1.919,5.3,5.3,0,0,1,2.733-.676,6.067,6.067,0,0,1,2.065.346,4.506,4.506,0,0,1,1.651,1.022l-.522,1.074a5.154,5.154,0,0,0-1.528-.944,4.679,4.679,0,0,0-1.651-.284,3.361,3.361,0,0,0-2.71,1.129,4.85,4.85,0,0,0-.96,3.232,4.939,4.939,0,0,0,.951,3.255,3.346,3.346,0,0,0,2.718,1.136,4.664,4.664,0,0,0,1.651-.284,5.115,5.115,0,0,0,1.528-.944l.522,1.075a4.514,4.514,0,0,1-1.651,1.021A6.053,6.053,0,0,1,697.043,589.494Z" transform="translate(-581.522 -578.314)" fill="#fff"/>
        <path id="Path_38046" data-name="Path 38046" d="M709.885,589.439h-1.459l4.837-10.933h1.213l4.852,10.933h-1.443l-4.238-9.873h.476Zm.614-2.749.507-1.167h5.712l.507,1.167Z" transform="translate(-587.469 -578.383)" fill="#fff"/>
        <path id="Path_38047" data-name="Path 38047" d="M729.042,589.439V578.506h1.076l6.817,9.045-.385.107v-9.152H737.9v10.933h-1.091l-6.8-9.029.353-.123v9.152Z" transform="translate(-594.894 -578.383)" fill="#fff"/>
      </g>
    </g>
  </g>
</svg>
