<svg xmlns="http://www.w3.org/2000/svg" width="36.009" height="40.197" viewBox="0 0 36.009 40.197">
  <g id="np_doctor_2506146_000000" transform="translate(-28.5 -26)">
    <path id="Path_38237" data-name="Path 38237" d="M40.241,51.5A11.614,11.614,0,0,1,28.6,39.858a1.256,1.256,0,1,1,2.512,0,9.126,9.126,0,1,0,18.253,0,1.256,1.256,0,0,1,2.512,0A11.668,11.668,0,0,1,40.241,51.5Z" transform="translate(-0.017 -2.049)" fill="#c4c4c4"/>
    <path id="Path_38238" data-name="Path 38238" d="M51.383,71.741A10.437,10.437,0,0,1,41,61.358a1.256,1.256,0,0,1,2.512,0,7.871,7.871,0,1,0,15.741,0,1.256,1.256,0,0,1,2.512,0A10.378,10.378,0,0,1,51.383,71.741Z" transform="translate(-2.032 -5.544)" fill="#c4c4c4"/>
    <path id="Path_38239" data-name="Path 38239" d="M63.244,59.492a5.947,5.947,0,1,1,5.947-5.947A5.971,5.971,0,0,1,63.244,59.492Zm0-9.379a3.451,3.451,0,0,0-3.435,3.435,3.435,3.435,0,0,0,6.87,0A3.447,3.447,0,0,0,63.244,50.114Z" transform="translate(-4.681 -3.511)" fill="#c4c4c4"/>
    <path id="Path_38240" data-name="Path 38240" d="M29.858,39.066A1.287,1.287,0,0,1,28.6,37.81V27.256a1.256,1.256,0,1,1,2.512,0V37.81A1.292,1.292,0,0,1,29.858,39.066Z" transform="translate(-0.017)" fill="#c4c4c4"/>
    <path id="Path_38241" data-name="Path 38241" d="M54.654,39.066A1.287,1.287,0,0,1,53.4,37.81V27.256a1.256,1.256,0,1,1,2.512,0V37.81A1.289,1.289,0,0,1,54.654,39.066Z" transform="translate(-4.047)" fill="#c4c4c4"/>
    <path id="Path_38242" data-name="Path 38242" d="M42.256,62.558A1.287,1.287,0,0,1,41,61.3V52.256a1.256,1.256,0,1,1,2.512,0V61.3A1.287,1.287,0,0,1,42.256,62.558Z" transform="translate(-2.032 -4.064)" fill="#c4c4c4"/>
    <path id="Path_38243" data-name="Path 38243" d="M34.029,28.512H29.757a1.256,1.256,0,0,1,0-2.512h4.272a1.287,1.287,0,0,1,1.256,1.256A1.234,1.234,0,0,1,34.029,28.512Z" fill="#c4c4c4"/>
    <path id="Path_38244" data-name="Path 38244" d="M53.825,28.512H49.553A1.287,1.287,0,0,1,48.3,27.256,1.311,1.311,0,0,1,49.638,26H53.91a1.287,1.287,0,0,1,1.256,1.256A1.306,1.306,0,0,1,53.825,28.512Z" transform="translate(-3.218)" fill="#c4c4c4"/>
  </g>
</svg>
