<svg xmlns="http://www.w3.org/2000/svg" width="47.652" height="26.248" viewBox="0 0 47.652 26.248">
  <path id="np_people_1033541_000000" d="M48.619,36.08a5.863,5.863,0,1,0-9.824,0,5.068,5.068,0,0,0-1.69.633,4.71,4.71,0,0,0-3.328-2.166,6.019,6.019,0,1,0-10.034,0,4.7,4.7,0,0,0-3.328,2.166,4.644,4.644,0,0,0-1.69-.633,5.863,5.863,0,1,0-9.824,0A4.649,4.649,0,0,0,5,40.886L5.313,45.8a2.991,2.991,0,0,0,2.694,2.746c1.9.159,3.907.264,5.863.264s3.907-.105,5.863-.264c.105,0,.21-.054.318-.054a2.942,2.942,0,0,0,2.694,2.694c2.007.159,4.015.264,6.073.264s4.066-.105,6.073-.264a2.942,2.942,0,0,0,2.694-2.694c.105,0,.21.054.318.054,1.9.159,3.907.264,5.863.264s3.907-.105,5.863-.264A2.994,2.994,0,0,0,52.324,45.8l.318-4.912a4.769,4.769,0,0,0-4.023-4.807Zm-34.8-7.658a4.489,4.489,0,1,1-4.489,4.489A4.486,4.486,0,0,1,13.815,28.422Zm5.757,18.694c-1.848.159-3.75.264-5.755.264-1.954,0-3.856-.105-5.7-.264a1.533,1.533,0,0,1-1.425-1.425L6.37,40.779A3.227,3.227,0,0,1,9.38,37.4l.633-.054a5.74,5.74,0,0,0,1.743,1,5.287,5.287,0,0,0,2.059.369,5.838,5.838,0,0,0,3.75-1.374l.633.054a3.145,3.145,0,0,1,1.584.528,3.714,3.714,0,0,0-.159,1.531l.264,7.6c-.105,0-.21.056-.316.056Zm9.188-20.543a4.648,4.648,0,1,1-4.648,4.648A4.621,4.621,0,0,1,28.761,26.574Zm7.712,12.834-.318,8.873a1.592,1.592,0,0,1-1.479,1.479c-1.9.159-3.907.264-5.968.264s-4.015-.105-5.968-.264A1.592,1.592,0,0,1,21.26,48.28l-.318-8.873a3.352,3.352,0,0,1,3.115-3.538s.687-.054.739-.054a6.1,6.1,0,0,0,7.711,0c.054,0,.739.054.739.054a3.337,3.337,0,0,1,3.226,3.538Zm7.235-10.985a4.489,4.489,0,1,1-4.489,4.489,4.486,4.486,0,0,1,4.489-4.489Zm7.445,12.357-.318,4.912a1.533,1.533,0,0,1-1.425,1.425c-1.848.159-3.75.264-5.755.264-1.954,0-3.856-.105-5.755-.264a1,1,0,0,1-.369-.105l.264-7.6a4.856,4.856,0,0,0-.159-1.531,2.835,2.835,0,0,1,1.584-.528l.633-.054a5.806,5.806,0,0,0,7.5,0l.633.054a3.325,3.325,0,0,1,3.167,3.431Z" transform="translate(-4.99 -25.2)" fill="#c4c4c4"/>
</svg>
