<svg xmlns="http://www.w3.org/2000/svg" width="83" height="83" viewBox="0 0 83 83">
  <g id="Group_74607" data-name="Group 74607" transform="translate(-466 -1617)">
    <g id="Group_74115" data-name="Group 74115" transform="translate(38.301 -1051.889)">
      <circle id="Ellipse_14" data-name="Ellipse 14" cx="7.008" cy="7.008" r="7.008" transform="translate(460.786 2681.888)" fill="none" stroke="#e1443b" stroke-linecap="round" stroke-linejoin="round" stroke-width="3"/>
      <path id="Path_38017" data-name="Path 38017" d="M465.3,2718.089a45.516,45.516,0,0,0-16.13,1.357V2736.8a2.67,2.67,0,0,0,2.67,2.669h.434a2.669,2.669,0,0,0,2.669-2.669v-12.547h17.185l15.335,13.908a2.67,2.67,0,0,0,3.682-.089l.185-.186a2.67,2.67,0,0,0,0-3.775l-8.791-8.79C473.053,2715.833,478,2707.7,478,2707.7h11.746a2.669,2.669,0,0,0,2.67-2.67h0a2.669,2.669,0,0,0-2.67-2.669H448.452a2.753,2.753,0,0,0-2.753,2.753h0a2.753,2.753,0,0,0,2.753,2.753h8.988a6.748,6.748,0,0,1,6.659,4.421" fill="none" stroke="#000" stroke-linecap="round" stroke-linejoin="round" stroke-width="3"/>
    </g>
    <g id="Ellipse_126" data-name="Ellipse 126" transform="translate(466 1617)" fill="none" stroke="#707070" stroke-width="1">
      <circle cx="41.5" cy="41.5" r="41.5" stroke="none"/>
      <circle cx="41.5" cy="41.5" r="41" fill="none"/>
    </g>
  </g>
</svg>
