<svg xmlns="http://www.w3.org/2000/svg" xmlns:xlink="http://www.w3.org/1999/xlink" width="500" zoomAndPan="magnify" viewBox="0 0 375 374.999991" height="500" preserveAspectRatio="xMidYMid meet" version="1.0"><defs><g/><clipPath id="b02fddbbac"><path d="M 74 194 L 90 194 L 90 208 L 74 208 Z M 74 194 " clip-rule="nonzero"/></clipPath><clipPath id="8d1199e86c"><path d="M 74.257812 197.113281 L 85.011719 188.5 L 93.625 199.253906 L 82.871094 207.867188 Z M 74.257812 197.113281 " clip-rule="nonzero"/></clipPath><clipPath id="830eef7418"><path d="M 74.257812 197.113281 L 85.011719 188.5 L 93.625 199.253906 L 82.871094 207.867188 Z M 74.257812 197.113281 " clip-rule="nonzero"/></clipPath><clipPath id="c15a48b7ff"><path d="M 42 154 L 87 154 L 87 206 L 42 206 Z M 42 154 " clip-rule="nonzero"/></clipPath><clipPath id="ca5ce53dad"><path d="M 64.78125 140.441406 L 104.070312 182.53125 L 62.339844 221.484375 L 23.050781 179.394531 Z M 64.78125 140.441406 " clip-rule="nonzero"/></clipPath><clipPath id="e839462871"><path d="M 64.78125 140.441406 L 104.070312 182.53125 L 62.339844 221.484375 L 23.050781 179.394531 Z M 64.78125 140.441406 " clip-rule="nonzero"/></clipPath><clipPath id="4bf325c94b"><path d="M 86 166 L 91 166 L 91 171 L 86 171 Z M 86 166 " clip-rule="nonzero"/></clipPath><clipPath id="92c0d293b3"><path d="M 87.367188 166.253906 L 90.605469 167.429688 L 89.425781 170.667969 L 86.1875 169.488281 Z M 87.367188 166.253906 " clip-rule="nonzero"/></clipPath><clipPath id="a52d6ee31e"><path d="M 87.367188 166.253906 L 90.605469 167.429688 L 89.425781 170.667969 L 86.1875 169.488281 Z M 87.367188 166.253906 " clip-rule="nonzero"/></clipPath><clipPath id="1cfc472842"><path d="M 91 175 L 95 175 L 95 180 L 91 180 Z M 91 175 " clip-rule="nonzero"/></clipPath><clipPath id="ce8b9188b3"><path d="M 92.097656 175.40625 L 95.332031 176.582031 L 94.15625 179.820312 L 90.917969 178.640625 Z M 92.097656 175.40625 " clip-rule="nonzero"/></clipPath><clipPath id="41c075d334"><path d="M 92.097656 175.40625 L 95.332031 176.582031 L 94.15625 179.820312 L 90.917969 178.640625 Z M 92.097656 175.40625 " clip-rule="nonzero"/></clipPath><clipPath id="e18c0d6650"><path d="M 89 185 L 94 185 L 94 189 L 89 189 Z M 89 185 " clip-rule="nonzero"/></clipPath><clipPath id="1816c5f6b6"><path d="M 90.5 184.789062 L 93.738281 185.964844 L 92.558594 189.203125 L 89.324219 188.023438 Z M 90.5 184.789062 " clip-rule="nonzero"/></clipPath><clipPath id="4271537040"><path d="M 90.5 184.789062 L 93.738281 185.964844 L 92.558594 189.203125 L 89.324219 188.023438 Z M 90.5 184.789062 " clip-rule="nonzero"/></clipPath><clipPath id="fdc3f1f07b"><path d="M 53 167 L 82 167 L 82 196.453125 L 53 196.453125 Z M 53 167 " clip-rule="nonzero"/></clipPath></defs><rect x="-37.5" width="450" fill="#ffffff" y="-37.499999" height="449.999989" fill-opacity="1"/><rect x="-37.5" width="450" fill="#fdfdfd" y="-37.499999" height="449.999989" fill-opacity="1"/><g clip-path="url(#b02fddbbac)"><g clip-path="url(#8d1199e86c)"><g clip-path="url(#830eef7418)"><path fill="#7c50d4" d="M 74.300781 197.078125 L 89.230469 194.003906 L 83.003906 208.03125 C 82.296875 203.640625 81.160156 199.394531 74.300781 197.078125 Z M 74.300781 197.078125 " fill-opacity="1" fill-rule="nonzero"/></g></g></g><g clip-path="url(#c15a48b7ff)"><g clip-path="url(#ca5ce53dad)"><g clip-path="url(#e839462871)"><path fill="#7c50d4" d="M 85.917969 199.164062 C 71.121094 212.328125 47.796875 205.535156 42.835938 186.257812 C 38.382812 167.722656 54.746094 150.992188 73.359375 155.546875 C 75.714844 156.15625 77.9375 157.089844 80.027344 158.347656 C 82.113281 159.605469 83.976562 161.132812 85.621094 162.929688 C 83.933594 161.210938 82.039062 159.769531 79.933594 158.601562 C 77.824219 157.433594 75.597656 156.589844 73.246094 156.066406 C 52.535156 151.878906 36.804688 173.78125 48.027344 191.84375 C 48.410156 192.429688 48.816406 193 49.246094 193.546875 C 49.679688 194.097656 50.132812 194.628906 50.617188 195.136719 C 51.097656 195.644531 51.597656 196.128906 52.125 196.589844 C 52.648438 197.054688 53.195312 197.492188 53.757812 197.902344 C 54.324219 198.3125 54.90625 198.699219 55.507812 199.058594 C 56.109375 199.417969 56.722656 199.746094 57.355469 200.050781 C 57.984375 200.351562 58.628906 200.625 59.285156 200.867188 C 59.941406 201.109375 60.605469 201.320312 61.28125 201.503906 C 61.957031 201.6875 62.640625 201.835938 63.328125 201.957031 C 64.019531 202.074219 64.710938 202.164062 65.40625 202.21875 C 66.105469 202.273438 66.804688 202.296875 67.503906 202.289062 C 68.203125 202.28125 68.898438 202.242188 69.59375 202.167969 C 70.292969 202.09375 70.980469 201.992188 71.667969 201.855469 C 72.355469 201.71875 73.03125 201.554688 73.703125 201.355469 C 74.375 201.15625 75.035156 200.929688 75.683594 200.667969 C 76.335938 200.410156 76.972656 200.121094 77.59375 199.804688 C 79.570312 198.753906 81.367188 197.460938 82.996094 195.921875 C 85.210938 194.011719 88.054688 197.167969 85.902344 199.179688 Z M 85.917969 199.164062 " fill-opacity="1" fill-rule="nonzero"/></g></g></g><g clip-path="url(#4bf325c94b)"><g clip-path="url(#92c0d293b3)"><g clip-path="url(#a52d6ee31e)"><path fill="#7c50d4" d="M 88.976562 166.839844 C 89.863281 167.160156 90.320312 168.144531 89.996094 169.03125 C 89.671875 169.917969 88.691406 170.375 87.804688 170.054688 C 86.914062 169.730469 86.457031 168.746094 86.78125 167.859375 C 87.105469 166.972656 88.085938 166.515625 88.976562 166.839844 Z M 88.976562 166.839844 " fill-opacity="1" fill-rule="evenodd"/></g></g></g><g clip-path="url(#1cfc472842)"><g clip-path="url(#ce8b9188b3)"><g clip-path="url(#41c075d334)"><path fill="#7c50d4" d="M 93.703125 175.992188 C 94.59375 176.3125 95.050781 177.296875 94.726562 178.183594 C 94.402344 179.070312 93.421875 179.527344 92.535156 179.207031 C 91.644531 178.882812 91.1875 177.898438 91.511719 177.011719 C 91.835938 176.125 92.816406 175.667969 93.703125 175.992188 Z M 93.703125 175.992188 " fill-opacity="1" fill-rule="evenodd"/></g></g></g><g clip-path="url(#e18c0d6650)"><g clip-path="url(#1816c5f6b6)"><g clip-path="url(#4271537040)"><path fill="#7c50d4" d="M 92.109375 185.371094 C 92.996094 185.695312 93.453125 186.679688 93.132812 187.566406 C 92.808594 188.453125 91.824219 188.910156 90.9375 188.589844 C 90.050781 188.265625 89.59375 187.28125 89.917969 186.394531 C 90.238281 185.507812 91.222656 185.050781 92.109375 185.371094 Z M 92.109375 185.371094 " fill-opacity="1" fill-rule="evenodd"/></g></g></g><g clip-path="url(#fdc3f1f07b)"><path fill="#5223af" d="M 57.183594 180.429688 C 59.828125 183.074219 61.714844 185.714844 63.601562 189.113281 C 72.410156 172.503906 83.105469 164.953125 80.839844 167.59375 C 73.667969 176.78125 68.761719 186.09375 63.980469 196.664062 C 61.210938 191.628906 57.6875 184.960938 53.410156 183.574219 C 52.148438 182.316406 55.171875 179.296875 57.183594 180.429688 Z M 57.183594 180.429688 " fill-opacity="1" fill-rule="nonzero"/></g><g fill="#4e22a6" fill-opacity="1"><g transform="translate(100.965233, 189.607185)"><g><path d="M 16.046875 -22.625 L 16.046875 -13.046875 L 7.125 -13.046875 L 7.125 -22.796875 L 2.828125 -22.625 L 2.828125 0 L 7.125 0 L 7.125 -9.578125 L 16.046875 -9.578125 L 16.046875 0 L 20.328125 0 L 20.328125 -22.625 Z M 16.046875 -22.625 "/></g></g></g><g fill="#4e22a6" fill-opacity="1"><g transform="translate(124.130189, 189.607185)"><g><path d="M 7.125 -3.359375 L 7.125 -9.71875 L 15.203125 -9.71875 L 14.515625 -13.140625 L 7.125 -13.140625 L 7.125 -19.234375 L 17 -19.234375 L 16.34375 -22.625 L 2.828125 -22.625 L 2.828125 0 L 18.671875 0 L 17.96875 -3.359375 Z M 7.125 -3.359375 "/></g></g></g><g fill="#4e22a6" fill-opacity="1"><g transform="translate(143.467601, 189.607185)"><g><path d="M 4.65625 0 L 6.65625 -5.328125 L 15.25 -5.328125 L 17.265625 0.328125 L 21.59375 -0.265625 L 12.8125 -22.625 L 9.15625 -22.625 L 0.328125 0 Z M 10.890625 -16.703125 L 13.90625 -8.8125 L 7.921875 -8.8125 Z M 10.890625 -16.703125 "/></g></g></g><g fill="#4e22a6" fill-opacity="1"><g transform="translate(165.401083, 189.607185)"><g><path d="M 7.125 -22.625 L 2.828125 -22.625 L 2.828125 0 L 17.765625 0 L 17.109375 -3.359375 L 7.125 -3.359375 Z M 7.125 -22.625 "/></g></g></g><g fill="#4e22a6" fill-opacity="1"><g transform="translate(183.50702, 189.607185)"><g><path d="M 0.328125 -19.234375 L 7.21875 -19.234375 L 7.21875 0 L 11.578125 0 L 11.578125 -19.234375 L 19.34375 -19.234375 L 18.640625 -22.625 L 0.328125 -22.625 Z M 0.328125 -19.234375 "/></g></g></g><g fill="#4e22a6" fill-opacity="1"><g transform="translate(203.177257, 189.607185)"><g><path d="M 16.046875 -22.625 L 16.046875 -13.046875 L 7.125 -13.046875 L 7.125 -22.796875 L 2.828125 -22.625 L 2.828125 0 L 7.125 0 L 7.125 -9.578125 L 16.046875 -9.578125 L 16.046875 0 L 20.328125 0 L 20.328125 -22.625 Z M 16.046875 -22.625 "/></g></g></g><g fill="#4e22a6" fill-opacity="1"><g transform="translate(226.342214, 189.607185)"><g><path d="M 1.5625 -1.5 C 2.320312 -1.03125 3.394531 -0.585938 4.78125 -0.171875 C 6.164062 0.234375 7.320312 0.4375 8.25 0.4375 C 10.03125 0.4375 11.554688 0.171875 12.828125 -0.359375 C 14.109375 -0.898438 15.070312 -1.632812 15.71875 -2.5625 C 16.375 -3.488281 16.703125 -4.566406 16.703125 -5.796875 C 16.703125 -6.878906 16.441406 -7.820312 15.921875 -8.625 C 15.398438 -9.4375 14.75 -10.125 13.96875 -10.6875 C 13.195312 -11.257812 12.15625 -11.925781 10.84375 -12.6875 L 9.890625 -13.25 L 8.8125 -13.84375 C 7.6875 -14.507812 6.875 -15.054688 6.375 -15.484375 C 5.875 -15.921875 5.625 -16.460938 5.625 -17.109375 C 5.625 -17.859375 5.9375 -18.425781 6.5625 -18.8125 C 7.195312 -19.207031 8.015625 -19.40625 9.015625 -19.40625 C 9.878906 -19.40625 10.679688 -19.28125 11.421875 -19.03125 C 12.171875 -18.789062 13 -18.445312 13.90625 -18 L 15.34375 -21.46875 C 12.988281 -22.59375 10.859375 -23.15625 8.953125 -23.15625 C 7.328125 -23.15625 5.929688 -22.894531 4.765625 -22.375 C 3.609375 -21.851562 2.71875 -21.132812 2.09375 -20.21875 C 1.476562 -19.300781 1.171875 -18.265625 1.171875 -17.109375 C 1.171875 -16.015625 1.484375 -15.03125 2.109375 -14.15625 C 2.742188 -13.28125 3.5 -12.519531 4.375 -11.875 C 5.25 -11.238281 6.429688 -10.472656 7.921875 -9.578125 L 8.921875 -8.984375 C 10.046875 -8.359375 10.878906 -7.816406 11.421875 -7.359375 C 11.972656 -6.910156 12.25 -6.410156 12.25 -5.859375 C 12.25 -5.054688 11.90625 -4.441406 11.21875 -4.015625 C 10.53125 -3.597656 9.519531 -3.390625 8.1875 -3.390625 C 7.320312 -3.390625 6.367188 -3.550781 5.328125 -3.875 C 4.285156 -4.195312 3.351562 -4.570312 2.53125 -5 Z M 1.5625 -1.5 "/></g></g></g><g fill="#4e22a6" fill-opacity="1"><g transform="translate(243.88234, 189.607185)"><g><path d="M 19.90625 -22.625 L 15.34375 -22.625 L 9.84375 -13.171875 L 4.59375 -23.09375 L 0.328125 -21.859375 L 7.71875 -8.8125 L 7.71875 0 L 12.046875 0 L 12.046875 -8.65625 Z M 19.90625 -22.625 "/></g></g></g><g fill="#4e22a6" fill-opacity="1"><g transform="translate(264.118388, 189.607185)"><g><path d="M 17.609375 0 L 21.9375 0 L 21.9375 -22.625 L 17.609375 -22.625 L 17.609375 -7.515625 L 7.125 -22.625 L 2.828125 -22.625 L 2.828125 0 L 7.125 0 L 7.125 -15.140625 Z M 17.609375 0 "/></g></g></g><g fill="#4e22a6" fill-opacity="1"><g transform="translate(288.880927, 189.607185)"><g><path d="M 18.078125 -21.640625 C 17.179688 -22.117188 16.15625 -22.476562 15 -22.71875 C 13.851562 -22.96875 12.878906 -23.09375 12.078125 -23.09375 C 9.898438 -23.09375 7.984375 -22.585938 6.328125 -21.578125 C 4.679688 -20.566406 3.410156 -19.160156 2.515625 -17.359375 C 1.617188 -15.566406 1.171875 -13.519531 1.171875 -11.21875 C 1.171875 -9 1.578125 -7.003906 2.390625 -5.234375 C 3.210938 -3.472656 4.429688 -2.082031 6.046875 -1.0625 C 7.671875 -0.0390625 9.628906 0.46875 11.921875 0.46875 C 12.890625 0.46875 13.976562 0.332031 15.1875 0.0625 C 16.394531 -0.195312 17.421875 -0.550781 18.265625 -1 L 16.640625 -4.1875 C 14.972656 -3.5 13.320312 -3.15625 11.6875 -3.15625 C 10.4375 -3.15625 9.359375 -3.515625 8.453125 -4.234375 C 7.546875 -4.960938 6.851562 -5.941406 6.375 -7.171875 C 5.894531 -8.398438 5.65625 -9.757812 5.65625 -11.25 C 5.65625 -12.914062 5.925781 -14.367188 6.46875 -15.609375 C 7.007812 -16.847656 7.757812 -17.800781 8.71875 -18.46875 C 9.675781 -19.132812 10.753906 -19.46875 11.953125 -19.46875 C 12.703125 -19.46875 13.332031 -19.414062 13.84375 -19.3125 C 14.351562 -19.21875 15.039062 -19.035156 15.90625 -18.765625 L 16.734375 -18.53125 Z M 18.078125 -21.640625 "/></g></g></g><g fill="#4e22a6" fill-opacity="1"><g transform="translate(307.652528, 189.607185)"><g><path d="M 16.046875 -22.625 L 16.046875 -13.046875 L 7.125 -13.046875 L 7.125 -22.796875 L 2.828125 -22.625 L 2.828125 0 L 7.125 0 L 7.125 -9.578125 L 16.046875 -9.578125 L 16.046875 0 L 20.328125 0 L 20.328125 -22.625 Z M 16.046875 -22.625 "/></g></g></g><g fill="#000000" fill-opacity="1"><g transform="translate(112.807555, 205.421339)"><g><path d="M 5.074219 -6.722656 L 5.074219 -7.5 L 0.976562 -7.5 L 0.976562 0 L 5.074219 0 L 5.074219 -0.773438 L 1.773438 -0.773438 L 1.773438 -3.363281 L 4.648438 -3.363281 L 4.648438 -4.136719 L 1.773438 -4.136719 L 1.773438 -6.722656 Z M 5.074219 -6.722656 "/></g></g></g><g fill="#000000" fill-opacity="1"><g transform="translate(118.630297, 205.421339)"><g><path d="M 5.699219 -5.097656 C 5.097656 -5.097656 4.574219 -4.8125 4.238281 -4.347656 C 3.898438 -4.8125 3.375 -5.097656 2.847656 -5.097656 C 2.398438 -5.097656 1.988281 -4.875 1.6875 -4.535156 L 1.6875 -5 L 0.914062 -5 L 0.914062 0 L 1.6875 0 L 1.6875 -3.199219 C 1.6875 -3.824219 2.160156 -4.324219 2.773438 -4.324219 C 3.363281 -4.324219 3.847656 -3.824219 3.847656 -3.199219 L 3.847656 0 L 4.625 0 L 4.625 -3.199219 C 4.625 -3.824219 5.109375 -4.324219 5.699219 -4.324219 C 6.296875 -4.324219 6.785156 -3.824219 6.785156 -3.199219 L 6.785156 0 L 7.5625 0 L 7.5625 -3.199219 C 7.5625 -4.25 6.734375 -5.097656 5.699219 -5.097656 Z M 5.699219 -5.097656 "/></g></g></g><g fill="#000000" fill-opacity="1"><g transform="translate(127.027044, 205.421339)"><g><path d="M 3.511719 -5.097656 C 2.800781 -5.097656 2.160156 -4.8125 1.6875 -4.347656 L 1.6875 -5 L 0.914062 -5 L 0.914062 3 L 1.6875 3 L 1.6875 -0.648438 C 2.160156 -0.1875 2.800781 0.101562 3.511719 0.101562 C 4.949219 0.101562 6.109375 -1.0625 6.109375 -2.5 C 6.109375 -3.9375 4.949219 -5.097656 3.511719 -5.097656 Z M 3.511719 -0.675781 C 2.5 -0.675781 1.6875 -1.488281 1.6875 -2.5 C 1.6875 -3.511719 2.5 -4.324219 3.511719 -4.324219 C 4.523438 -4.324219 5.335938 -3.511719 5.335938 -2.5 C 5.335938 -1.488281 4.523438 -0.675781 3.511719 -0.675781 Z M 3.511719 -0.675781 "/></g></g></g><g fill="#000000" fill-opacity="1"><g transform="translate(133.699464, 205.421339)"><g><path d="M 3.160156 0.101562 C 4.597656 0.101562 5.761719 -1.0625 5.761719 -2.5 C 5.761719 -3.9375 4.597656 -5.097656 3.160156 -5.097656 C 1.722656 -5.097656 0.5625 -3.9375 0.5625 -2.5 C 0.5625 -1.0625 1.722656 0.101562 3.160156 0.101562 Z M 3.160156 -0.675781 C 2.148438 -0.675781 1.335938 -1.488281 1.335938 -2.5 C 1.335938 -3.511719 2.148438 -4.324219 3.160156 -4.324219 C 4.160156 -4.324219 4.984375 -3.511719 4.984375 -2.5 C 4.984375 -1.488281 4.160156 -0.675781 3.160156 -0.675781 Z M 3.160156 -0.675781 "/></g></g></g><g fill="#000000" fill-opacity="1"><g transform="translate(140.022015, 205.421339)"><g><path d="M 7.074219 -5 L 5.75 -0.898438 L 4.386719 -5 L 3.648438 -5 L 2.285156 -0.925781 L 0.988281 -5 L 0.113281 -5 L 1.835938 0 L 2.6875 0 L 4.023438 -3.925781 L 5.347656 0 L 6.199219 0 L 7.910156 -5 Z M 7.074219 -5 "/></g></g></g><g fill="#000000" fill-opacity="1"><g transform="translate(148.043911, 205.421339)"><g><path d="M 5.761719 -2.550781 C 5.722656 -3.988281 4.585938 -5.097656 3.160156 -5.097656 C 1.722656 -5.097656 0.5625 -3.9375 0.5625 -2.5 C 0.5625 -1.0625 1.722656 0.101562 3.160156 0.101562 C 4.347656 0.101562 5.335938 -0.6875 5.660156 -1.761719 L 4.835938 -1.761719 C 4.5625 -1.113281 3.910156 -0.675781 3.160156 -0.675781 C 2.175781 -0.675781 1.386719 -1.425781 1.335938 -2.386719 L 5.75 -2.386719 Z M 3.160156 -4.324219 C 3.960938 -4.324219 4.636719 -3.8125 4.875 -3.085938 L 1.4375 -3.085938 C 1.6875 -3.8125 2.363281 -4.324219 3.160156 -4.324219 Z M 3.160156 -4.324219 "/></g></g></g><g fill="#000000" fill-opacity="1"><g transform="translate(154.316486, 205.421339)"><g><path d="M 3.347656 -5.097656 C 2.636719 -5.097656 2.0625 -4.785156 1.6875 -4.285156 L 1.6875 -5 L 0.914062 -5 L 0.914062 0 L 1.6875 0 L 1.6875 -2.710938 C 1.6875 -3.625 2.4375 -4.324219 3.347656 -4.324219 C 3.5 -4.324219 3.625 -4.3125 3.738281 -4.273438 L 3.738281 -5.0625 C 3.625 -5.085938 3.5 -5.097656 3.347656 -5.097656 Z M 3.347656 -5.097656 "/></g></g></g><g fill="#000000" fill-opacity="1"><g transform="translate(158.11502, 205.421339)"><g><path d="M 1.398438 -5.9375 C 1.6875 -5.9375 1.9375 -6.171875 1.9375 -6.460938 C 1.9375 -6.773438 1.6875 -7 1.398438 -7 C 1.101562 -7 0.851562 -6.773438 0.851562 -6.460938 C 0.851562 -6.171875 1.101562 -5.9375 1.398438 -5.9375 Z M 1.011719 0 L 1.785156 0 L 1.785156 -5 L 1.011719 -5 Z M 1.011719 0 "/></g></g></g><g fill="#000000" fill-opacity="1"><g transform="translate(160.901439, 205.421339)"><g><path d="M 2.898438 -5.097656 C 2.4375 -5.097656 2.011719 -4.910156 1.6875 -4.597656 L 1.6875 -5 L 0.914062 -5 L 0.914062 0 L 1.6875 0 L 1.6875 -3.1875 C 1.6875 -3.824219 2.199219 -4.324219 2.835938 -4.324219 C 3.472656 -4.324219 3.972656 -3.824219 3.972656 -3.1875 L 3.972656 0 L 4.75 0 L 4.75 -3.1875 C 4.75 -4.25 3.863281 -5.097656 2.898438 -5.097656 Z M 2.898438 -5.097656 "/></g></g></g><g fill="#000000" fill-opacity="1"><g transform="translate(166.49927, 205.421339)"><g><path d="M 4.972656 -5 L 4.972656 -4.375 C 4.511719 -4.824219 3.863281 -5.097656 3.160156 -5.097656 C 1.722656 -5.097656 0.5625 -3.949219 0.5625 -2.5 C 0.5625 -1.0625 1.722656 0.101562 3.160156 0.101562 C 3.875 0.101562 4.511719 -0.1875 4.984375 -0.648438 L 4.984375 0.4375 C 4.984375 1.4375 4.160156 2.261719 3.160156 2.261719 C 2.347656 2.261719 1.660156 1.722656 1.425781 1 L 0.710938 1.3125 C 1.074219 2.324219 2.035156 3.035156 3.160156 3.035156 C 4.597656 3.035156 5.761719 1.875 5.761719 0.4375 L 5.761719 -5 Z M 3.160156 -0.675781 C 2.148438 -0.675781 1.335938 -1.5 1.335938 -2.5 C 1.335938 -3.511719 2.148438 -4.324219 3.160156 -4.324219 C 4.160156 -4.324219 4.984375 -3.511719 4.984375 -2.5 C 4.984375 -1.5 4.160156 -0.675781 3.160156 -0.675781 Z M 3.160156 -0.675781 "/></g></g></g><g fill="#000000" fill-opacity="1"><g transform="translate(173.17169, 205.421339)"><g/></g></g><g fill="#000000" fill-opacity="1"><g transform="translate(176.18302, 205.421339)"><g><path d="M 9.359375 -7.5 L 7.4375 -1.335938 L 5.609375 -7.5 L 4.488281 -7.5 L 2.6875 -1.351562 L 0.773438 -7.5 L -0.0742188 -7.5 L 2.273438 0 L 3.125 0 L 5.046875 -6.648438 L 7.011719 0 L 7.847656 0 L 10.183594 -7.5 Z M 9.359375 -7.5 "/></g></g></g><g fill="#000000" fill-opacity="1"><g transform="translate(186.291608, 205.421339)"><g><path d="M 3.160156 0.101562 C 4.597656 0.101562 5.761719 -1.0625 5.761719 -2.5 C 5.761719 -3.9375 4.597656 -5.097656 3.160156 -5.097656 C 1.722656 -5.097656 0.5625 -3.9375 0.5625 -2.5 C 0.5625 -1.0625 1.722656 0.101562 3.160156 0.101562 Z M 3.160156 -0.675781 C 2.148438 -0.675781 1.335938 -1.488281 1.335938 -2.5 C 1.335938 -3.511719 2.148438 -4.324219 3.160156 -4.324219 C 4.160156 -4.324219 4.984375 -3.511719 4.984375 -2.5 C 4.984375 -1.488281 4.160156 -0.675781 3.160156 -0.675781 Z M 3.160156 -0.675781 "/></g></g></g><g fill="#000000" fill-opacity="1"><g transform="translate(192.61416, 205.421339)"><g><path d="M 3.347656 -5.097656 C 2.636719 -5.097656 2.0625 -4.785156 1.6875 -4.285156 L 1.6875 -5 L 0.914062 -5 L 0.914062 0 L 1.6875 0 L 1.6875 -2.710938 C 1.6875 -3.625 2.4375 -4.324219 3.347656 -4.324219 C 3.5 -4.324219 3.625 -4.3125 3.738281 -4.273438 L 3.738281 -5.0625 C 3.625 -5.085938 3.5 -5.097656 3.347656 -5.097656 Z M 3.347656 -5.097656 "/></g></g></g><g fill="#000000" fill-opacity="1"><g transform="translate(196.412694, 205.421339)"><g><path d="M 5.285156 0 L 2.75 -2.773438 L 5.074219 -5 L 4.035156 -5 L 1.761719 -2.8125 L 1.761719 -9.199219 L 0.988281 -9.199219 L 0.988281 0 L 1.761719 0 L 1.761719 -2.785156 L 4.222656 0 Z M 5.285156 0 "/></g></g></g><g fill="#000000" fill-opacity="1"><g transform="translate(201.573189, 205.421339)"><g><path d="M 3.511719 -5.097656 C 2.800781 -5.097656 2.160156 -4.8125 1.6875 -4.347656 L 1.6875 -5 L 0.914062 -5 L 0.914062 3 L 1.6875 3 L 1.6875 -0.648438 C 2.160156 -0.1875 2.800781 0.101562 3.511719 0.101562 C 4.949219 0.101562 6.109375 -1.0625 6.109375 -2.5 C 6.109375 -3.9375 4.949219 -5.097656 3.511719 -5.097656 Z M 3.511719 -0.675781 C 2.5 -0.675781 1.6875 -1.488281 1.6875 -2.5 C 1.6875 -3.511719 2.5 -4.324219 3.511719 -4.324219 C 4.523438 -4.324219 5.335938 -3.511719 5.335938 -2.5 C 5.335938 -1.488281 4.523438 -0.675781 3.511719 -0.675781 Z M 3.511719 -0.675781 "/></g></g></g><g fill="#000000" fill-opacity="1"><g transform="translate(208.245609, 205.421339)"><g><path d="M 0.914062 0 L 1.6875 0 L 1.6875 -9.199219 L 0.914062 -9.199219 Z M 0.914062 0 "/></g></g></g><g fill="#000000" fill-opacity="1"><g transform="translate(210.844608, 205.421339)"><g><path d="M 6.273438 -0.648438 C 6 -0.648438 5.761719 -0.835938 5.761719 -1.300781 L 5.761719 -5 L 4.984375 -5 L 4.984375 -4.347656 C 4.523438 -4.8125 3.875 -5.097656 3.160156 -5.097656 C 1.722656 -5.097656 0.5625 -3.9375 0.5625 -2.5 C 0.5625 -1.0625 1.722656 0.101562 3.160156 0.101562 C 3.910156 0.101562 4.585938 -0.25 5.0625 -0.761719 C 5.222656 -0.25 5.625 0.101562 6.210938 0.101562 C 6.347656 0.101562 6.484375 0.0625 6.585938 0 L 6.585938 -0.648438 Z M 3.160156 -0.675781 C 2.148438 -0.675781 1.335938 -1.488281 1.335938 -2.5 C 1.335938 -3.511719 2.148438 -4.324219 3.160156 -4.324219 C 4.160156 -4.324219 4.984375 -3.511719 4.984375 -2.5 C 4.984375 -1.488281 4.160156 -0.675781 3.160156 -0.675781 Z M 3.160156 -0.675781 "/></g></g></g><g fill="#000000" fill-opacity="1"><g transform="translate(217.579501, 205.421339)"><g><path d="M 3.160156 0.101562 C 4.324219 0.101562 5.296875 -0.648438 5.636719 -1.699219 L 4.8125 -1.699219 C 4.511719 -1.085938 3.886719 -0.675781 3.160156 -0.675781 C 2.148438 -0.675781 1.335938 -1.476562 1.335938 -2.5 C 1.335938 -3.523438 2.148438 -4.324219 3.160156 -4.324219 C 3.886719 -4.324219 4.511719 -3.910156 4.8125 -3.300781 L 5.636719 -3.300781 C 5.296875 -4.347656 4.324219 -5.097656 3.160156 -5.097656 C 1.722656 -5.097656 0.5625 -3.9375 0.5625 -2.5 C 0.5625 -1.0625 1.722656 0.101562 3.160156 0.101562 Z M 3.160156 0.101562 "/></g></g></g><g fill="#000000" fill-opacity="1"><g transform="translate(223.539687, 205.421339)"><g><path d="M 5.761719 -2.550781 C 5.722656 -3.988281 4.585938 -5.097656 3.160156 -5.097656 C 1.722656 -5.097656 0.5625 -3.9375 0.5625 -2.5 C 0.5625 -1.0625 1.722656 0.101562 3.160156 0.101562 C 4.347656 0.101562 5.335938 -0.6875 5.660156 -1.761719 L 4.835938 -1.761719 C 4.5625 -1.113281 3.910156 -0.675781 3.160156 -0.675781 C 2.175781 -0.675781 1.386719 -1.425781 1.335938 -2.386719 L 5.75 -2.386719 Z M 3.160156 -4.324219 C 3.960938 -4.324219 4.636719 -3.8125 4.875 -3.085938 L 1.4375 -3.085938 C 1.6875 -3.8125 2.363281 -4.324219 3.160156 -4.324219 Z M 3.160156 -4.324219 "/></g></g></g><g fill="#000000" fill-opacity="1"><g transform="translate(229.812262, 205.421339)"><g/></g></g><g fill="#000000" fill-opacity="1"><g transform="translate(232.823591, 205.421339)"><g><path d="M 5.847656 -7.5 L 5.847656 -4.148438 L 1.710938 -4.148438 L 1.710938 -7.5 L 0.914062 -7.5 L 0.914062 0 L 1.710938 0 L 1.710938 -3.347656 L 5.847656 -3.347656 L 5.847656 0 L 6.648438 0 L 6.648438 -7.5 Z M 5.847656 -7.5 "/></g></g></g><g fill="#000000" fill-opacity="1"><g transform="translate(240.383157, 205.421339)"><g><path d="M 5.761719 -2.550781 C 5.722656 -3.988281 4.585938 -5.097656 3.160156 -5.097656 C 1.722656 -5.097656 0.5625 -3.9375 0.5625 -2.5 C 0.5625 -1.0625 1.722656 0.101562 3.160156 0.101562 C 4.347656 0.101562 5.335938 -0.6875 5.660156 -1.761719 L 4.835938 -1.761719 C 4.5625 -1.113281 3.910156 -0.675781 3.160156 -0.675781 C 2.175781 -0.675781 1.386719 -1.425781 1.335938 -2.386719 L 5.75 -2.386719 Z M 3.160156 -4.324219 C 3.960938 -4.324219 4.636719 -3.8125 4.875 -3.085938 L 1.4375 -3.085938 C 1.6875 -3.8125 2.363281 -4.324219 3.160156 -4.324219 Z M 3.160156 -4.324219 "/></g></g></g><g fill="#000000" fill-opacity="1"><g transform="translate(246.655732, 205.421339)"><g><path d="M 6.273438 -0.648438 C 6 -0.648438 5.761719 -0.835938 5.761719 -1.300781 L 5.761719 -5 L 4.984375 -5 L 4.984375 -4.347656 C 4.523438 -4.8125 3.875 -5.097656 3.160156 -5.097656 C 1.722656 -5.097656 0.5625 -3.9375 0.5625 -2.5 C 0.5625 -1.0625 1.722656 0.101562 3.160156 0.101562 C 3.910156 0.101562 4.585938 -0.25 5.0625 -0.761719 C 5.222656 -0.25 5.625 0.101562 6.210938 0.101562 C 6.347656 0.101562 6.484375 0.0625 6.585938 0 L 6.585938 -0.648438 Z M 3.160156 -0.675781 C 2.148438 -0.675781 1.335938 -1.488281 1.335938 -2.5 C 1.335938 -3.511719 2.148438 -4.324219 3.160156 -4.324219 C 4.160156 -4.324219 4.984375 -3.511719 4.984375 -2.5 C 4.984375 -1.488281 4.160156 -0.675781 3.160156 -0.675781 Z M 3.160156 -0.675781 "/></g></g></g><g fill="#000000" fill-opacity="1"><g transform="translate(253.390626, 205.421339)"><g><path d="M 0.914062 0 L 1.6875 0 L 1.6875 -9.199219 L 0.914062 -9.199219 Z M 0.914062 0 "/></g></g></g><g fill="#000000" fill-opacity="1"><g transform="translate(255.989625, 205.421339)"><g><path d="M 3.210938 -4.25 L 3.210938 -5 L 1.875 -5 L 1.875 -7.171875 L 1.101562 -7.171875 L 1.101562 -5 L 0.261719 -5 L 0.261719 -4.25 L 1.101562 -4.25 L 1.101562 -1.3125 C 1.101562 -0.523438 1.761719 0.101562 2.535156 0.101562 C 2.785156 0.101562 3.0625 0.0234375 3.199219 -0.0625 L 3.199219 -0.648438 L 2.625 -0.648438 C 2.222656 -0.648438 1.875 -0.949219 1.875 -1.414062 L 1.875 -4.25 Z M 3.210938 -4.25 "/></g></g></g><g fill="#000000" fill-opacity="1"><g transform="translate(259.613224, 205.421339)"><g><path d="M 2.800781 -5.097656 C 2.386719 -5.097656 2 -4.960938 1.6875 -4.734375 L 1.6875 -9.199219 L 0.914062 -9.199219 L 0.914062 0 L 1.6875 0 L 1.6875 -3.199219 C 1.6875 -3.835938 2.1875 -4.324219 2.800781 -4.324219 C 3.410156 -4.324219 3.925781 -3.835938 3.925781 -3.199219 L 3.925781 0 L 4.6875 0 L 4.6875 -3.199219 C 4.6875 -4.261719 3.847656 -5.097656 2.800781 -5.097656 Z M 2.800781 -5.097656 "/></g></g></g><g fill="#000000" fill-opacity="1"><g transform="translate(265.148582, 205.421339)"><g/></g></g><g fill="#000000" fill-opacity="1"><g transform="translate(268.159912, 205.421339)"><g><path d="M 6.296875 -4.175781 L 5.597656 -4.175781 L 5.597656 -5.4375 L 4.824219 -5.4375 L 4.824219 -4.175781 L 3.300781 -4.175781 C 2.5 -4.175781 1.863281 -4.734375 1.863281 -5.523438 C 1.863281 -6.285156 2.472656 -6.699219 3.160156 -6.699219 L 4.796875 -6.699219 L 4.796875 -7.5 L 3.023438 -7.5 C 1.949219 -7.5 1.074219 -6.699219 1.074219 -5.5625 C 1.074219 -4.847656 1.425781 -4.222656 1.972656 -3.824219 C 1.398438 -3.449219 1.011719 -2.785156 1.011719 -2.050781 C 1.011719 -0.863281 2.050781 0 3.347656 0 C 4.6875 0 5.597656 -0.898438 5.597656 -2.125 L 5.597656 -3.410156 L 6.296875 -3.410156 Z M 3.335938 -0.6875 C 2.460938 -0.6875 1.738281 -1.25 1.738281 -2.074219 C 1.738281 -2.824219 2.363281 -3.410156 3.136719 -3.410156 L 4.824219 -3.410156 L 4.824219 -2.125 C 4.824219 -1.300781 4.25 -0.6875 3.335938 -0.6875 Z M 3.335938 -0.6875 "/></g></g></g><g fill="#000000" fill-opacity="1"><g transform="translate(274.944782, 205.421339)"><g/></g></g><g fill="#000000" fill-opacity="1"><g transform="translate(277.956111, 205.421339)"><g><path d="M 9.359375 -7.5 L 7.4375 -1.335938 L 5.609375 -7.5 L 4.488281 -7.5 L 2.6875 -1.351562 L 0.773438 -7.5 L -0.0742188 -7.5 L 2.273438 0 L 3.125 0 L 5.046875 -6.648438 L 7.011719 0 L 7.847656 0 L 10.183594 -7.5 Z M 9.359375 -7.5 "/></g></g></g><g fill="#000000" fill-opacity="1"><g transform="translate(288.064699, 205.421339)"><g><path d="M 5.761719 -2.550781 C 5.722656 -3.988281 4.585938 -5.097656 3.160156 -5.097656 C 1.722656 -5.097656 0.5625 -3.9375 0.5625 -2.5 C 0.5625 -1.0625 1.722656 0.101562 3.160156 0.101562 C 4.347656 0.101562 5.335938 -0.6875 5.660156 -1.761719 L 4.835938 -1.761719 C 4.5625 -1.113281 3.910156 -0.675781 3.160156 -0.675781 C 2.175781 -0.675781 1.386719 -1.425781 1.335938 -2.386719 L 5.75 -2.386719 Z M 3.160156 -4.324219 C 3.960938 -4.324219 4.636719 -3.8125 4.875 -3.085938 L 1.4375 -3.085938 C 1.6875 -3.8125 2.363281 -4.324219 3.160156 -4.324219 Z M 3.160156 -4.324219 "/></g></g></g><g fill="#000000" fill-opacity="1"><g transform="translate(294.337274, 205.421339)"><g><path d="M 0.914062 0 L 1.6875 0 L 1.6875 -9.199219 L 0.914062 -9.199219 Z M 0.914062 0 "/></g></g></g><g fill="#000000" fill-opacity="1"><g transform="translate(296.936273, 205.421339)"><g><path d="M 0.914062 0 L 1.6875 0 L 1.6875 -9.199219 L 0.914062 -9.199219 Z M 0.914062 0 "/></g></g></g><g fill="#000000" fill-opacity="1"><g transform="translate(299.535272, 205.421339)"><g><path d="M 2.898438 -5.097656 C 2.4375 -5.097656 2.011719 -4.910156 1.6875 -4.597656 L 1.6875 -5 L 0.914062 -5 L 0.914062 0 L 1.6875 0 L 1.6875 -3.1875 C 1.6875 -3.824219 2.199219 -4.324219 2.835938 -4.324219 C 3.472656 -4.324219 3.972656 -3.824219 3.972656 -3.1875 L 3.972656 0 L 4.75 0 L 4.75 -3.1875 C 4.75 -4.25 3.863281 -5.097656 2.898438 -5.097656 Z M 2.898438 -5.097656 "/></g></g></g><g fill="#000000" fill-opacity="1"><g transform="translate(305.133103, 205.421339)"><g><path d="M 5.761719 -2.550781 C 5.722656 -3.988281 4.585938 -5.097656 3.160156 -5.097656 C 1.722656 -5.097656 0.5625 -3.9375 0.5625 -2.5 C 0.5625 -1.0625 1.722656 0.101562 3.160156 0.101562 C 4.347656 0.101562 5.335938 -0.6875 5.660156 -1.761719 L 4.835938 -1.761719 C 4.5625 -1.113281 3.910156 -0.675781 3.160156 -0.675781 C 2.175781 -0.675781 1.386719 -1.425781 1.335938 -2.386719 L 5.75 -2.386719 Z M 3.160156 -4.324219 C 3.960938 -4.324219 4.636719 -3.8125 4.875 -3.085938 L 1.4375 -3.085938 C 1.6875 -3.8125 2.363281 -4.324219 3.160156 -4.324219 Z M 3.160156 -4.324219 "/></g></g></g><g fill="#000000" fill-opacity="1"><g transform="translate(311.405678, 205.421339)"><g><path d="M 2.148438 0.101562 C 3.023438 0.101562 3.75 -0.488281 3.75 -1.351562 C 3.75 -2.25 3 -2.597656 2.347656 -2.863281 C 1.738281 -3.125 1.425781 -3.261719 1.425781 -3.699219 C 1.425781 -4.125 1.710938 -4.324219 2.125 -4.324219 C 2.449219 -4.324219 2.738281 -4.1875 2.875 -3.925781 L 3.550781 -4.273438 C 3.363281 -4.722656 2.722656 -5.097656 2.085938 -5.097656 C 1.351562 -5.097656 0.636719 -4.585938 0.636719 -3.675781 C 0.636719 -2.886719 1.164062 -2.488281 2.050781 -2.148438 C 2.648438 -1.910156 2.972656 -1.75 2.972656 -1.351562 C 2.972656 -0.914062 2.597656 -0.664062 2.148438 -0.664062 C 1.6875 -0.664062 1.238281 -0.925781 1.164062 -1.289062 L 0.414062 -0.988281 C 0.601562 -0.386719 1.351562 0.101562 2.148438 0.101562 Z M 2.148438 0.101562 "/></g></g></g><g fill="#000000" fill-opacity="1"><g transform="translate(315.541573, 205.421339)"><g><path d="M 2.148438 0.101562 C 3.023438 0.101562 3.75 -0.488281 3.75 -1.351562 C 3.75 -2.25 3 -2.597656 2.347656 -2.863281 C 1.738281 -3.125 1.425781 -3.261719 1.425781 -3.699219 C 1.425781 -4.125 1.710938 -4.324219 2.125 -4.324219 C 2.449219 -4.324219 2.738281 -4.1875 2.875 -3.925781 L 3.550781 -4.273438 C 3.363281 -4.722656 2.722656 -5.097656 2.085938 -5.097656 C 1.351562 -5.097656 0.636719 -4.585938 0.636719 -3.675781 C 0.636719 -2.886719 1.164062 -2.488281 2.050781 -2.148438 C 2.648438 -1.910156 2.972656 -1.75 2.972656 -1.351562 C 2.972656 -0.914062 2.597656 -0.664062 2.148438 -0.664062 C 1.6875 -0.664062 1.238281 -0.925781 1.164062 -1.289062 L 0.414062 -0.988281 C 0.601562 -0.386719 1.351562 0.101562 2.148438 0.101562 Z M 2.148438 0.101562 "/></g></g></g></svg>