<svg xmlns="http://www.w3.org/2000/svg" width="54" height="48" viewBox="0 0 54 48">
  <g id="Group_74373" data-name="Group 74373" transform="translate(-1747 -10985)">
    <g id="Rectangle_146962" data-name="Rectangle 146962" transform="translate(1747 10985)" fill="none" stroke="#007ce2" stroke-width="1">
      <path d="M24,0H54a0,0,0,0,1,0,0V48a0,0,0,0,1,0,0H24A24,24,0,0,1,0,24v0A24,24,0,0,1,24,0Z" stroke="none"/>
      <path d="M24,.5H53a.5.5,0,0,1,.5.5V47a.5.5,0,0,1-.5.5H24A23.5,23.5,0,0,1,.5,24v0A23.5,23.5,0,0,1,24,.5Z" fill="none"/>
    </g>
    <g id="Group_74358" data-name="Group 74358" transform="translate(1789.466 11021.466) rotate(180)">
      <rect id="Rectangle_146959" data-name="Rectangle 146959" width="24" height="24" transform="translate(0.466 0.466)" fill="none"/>
      <g id="Group_74356" data-name="Group 74356" transform="translate(3.116 4.675)">
        <path id="Path_38211" data-name="Path 38211" d="M6,24H24.7" transform="translate(-6 -16.209)" fill="none" stroke="#007ce2" stroke-linecap="round" stroke-linejoin="round" stroke-width="2"/>
        <path id="Path_38212" data-name="Path 38212" d="M29,9l6.752,7.791L29,24.582" transform="translate(-17.054 -9)" fill="none" stroke="#007ce2" stroke-linecap="round" stroke-linejoin="round" stroke-width="2"/>
      </g>
    </g>
  </g>
</svg>
