<svg xmlns="http://www.w3.org/2000/svg" width="270" height="75.018" viewBox="0 0 270 75.018">
  <g id="Logo" transform="translate(-335.721 -485.494)">
    <g id="Group_74120" data-name="Group 74120" transform="translate(335.721 485.494)">
      <g id="Group_74118" data-name="Group 74118" transform="translate(2.283 14.554)">
        <path id="Path_38022" data-name="Path 38022" d="M397.478,566.287c1.967-1.107,4.111-2.984,3.474-5.521-.238-2.118-2.677-4.015-4.281-5.043a16.734,16.734,0,0,0-4.185-1.929,17,17,0,0,0-2.257-.512,15.974,15.974,0,0,1-2.2-.3c-.76-.229-1.644-.8-1.555-1.7a1.981,1.981,0,0,1,.4-.91c1.212-1.732,3.32-3.042,3.53-5.139a6.657,6.657,0,0,0,7.634,1.888,6.554,6.554,0,0,0,3.759-6.851,15.754,15.754,0,0,1-4.4,3.126,5.384,5.384,0,0,1-5.189-.362c-1.529-1.149-1.991-3.177-2.686-4.948a8.823,8.823,0,0,0-3.5-4.441,5.205,5.205,0,0,0-2.689-.687,10.89,10.89,0,0,0-3.621.744c-3.233,1.166-7.2,3.484-8.44,6.866a2.813,2.813,0,0,0,.154,2.612,3.525,3.525,0,0,1,.422-1.425,10.038,10.038,0,0,1,4.635-4.428,18.683,18.683,0,0,1,3.179-1.19,7.052,7.052,0,0,1,3.8.09,3.117,3.117,0,0,1,2.194,2.631,11.272,11.272,0,0,1-1.471,6.316c-.431.835-.9,1.648-1.389,2.451-.244.4-.493.8-.744,1.2-1.167,1.852-4.252,4.189-1.209,6.575a5.644,5.644,0,0,0,2.2,1.024,42.739,42.739,0,0,1,7.1,2.249,15.957,15.957,0,0,1,4.472,2.393,2.191,2.191,0,0,1,.611.888,2.149,2.149,0,0,1-.276,1.733c-1.934,3.25-6.108,5.131-9.51,6.4-1.248.464-2.314.841-3.722,1.258-.756.223-2.042.587-2.926.844a.139.139,0,0,0,.06.27c1.176-.129,3.021-.452,4.127-.7a51.211,51.211,0,0,0,5.081-1.349A55.376,55.376,0,0,0,397.478,566.287Z" transform="translate(-354.7 -522.33)" fill="#007ce2"/>
        <path id="Path_38023" data-name="Path 38023" d="M365.04,583.448c.08-.613.012-1.638-.561-1.856a1.775,1.775,0,0,0-.538-.061h-.072a3.441,3.441,0,0,0-1.052.152c-2.559.9-4.241,2.906-6.018,4.8s-3.616,3.695-5.38,5.58c-.588.63-1.283,1.15-1.879,1.771-.636.66-1.3,1.288-1.959,1.93-1.021.989-1.988,2.03-3,3.025s-2.042,1.92-2.992,2.956q-.216.237-.429.477a9.433,9.433,0,0,0-.834,1.048,1.221,1.221,0,0,0-.273.585c.02.384.509.105.666-.038a21.289,21.289,0,0,1,3.041-2.533c1.2-.744,2.367-1.526,3.584-2.241,1.966-1.158,3.978-2.238,6-3.3.965-.509,1.933-1.014,2.862-1.586a22.941,22.941,0,0,0,5.736-5.03c.77-.946,1.56-1.924,2.253-2.922A5.419,5.419,0,0,0,365.04,583.448Z" transform="translate(-340.051 -545.296)" fill="#007ce2"/>
        <path id="Path_38024" data-name="Path 38024" d="M399.277,518.689c0,2.7,1.794,4.881,4.007,4.881a4.211,4.211,0,0,0,3.848-3.535l.008-.025a6.813,6.813,0,0,0-.023-3.183,6.425,6.425,0,0,0-.935-2.215,4.227,4.227,0,0,0-1.839-1.529,4.132,4.132,0,0,0-1.56-.289,5.18,5.18,0,0,0-.857.073,8.115,8.115,0,0,0-2.307.815,4.846,4.846,0,0,0-2.9,3.188.544.544,0,0,0-.008.237c.044.173.365-.557.84-.94a5.928,5.928,0,0,1,3.38-1.517C399.671,515.47,399.277,516.821,399.277,518.689Z" transform="translate(-366.84 -512.794)" fill="#007ce2"/>
      </g>
      <g id="Group_74119" data-name="Group 74119">
        <path id="Path_38025" data-name="Path 38025" d="M410.572,523.943a37.962,37.962,0,0,0-6.6-22.162,38.63,38.63,0,0,0-39.174-15.5,36.652,36.652,0,0,0-22.15,14.23c-6.262,8.738-7.708,16.6-6.583,27.269.337,3.194,1.619,9.74,3.495,11.9a23.675,23.675,0,0,1-1.355-6.605,41.846,41.846,0,0,1-.26-7.573,36.545,36.545,0,0,1,2.577-11.752,35.038,35.038,0,0,1,27.909-21.511c23.157-2.715,40.831,21.731,32.069,43.271a27.332,27.332,0,0,1-11.46,13c-4.822,2.855-12.626,5.722-18.056,3.072-.054-.026-.091-.057-.153-.036-1.892.639-2.034,2.988-1.888,4.653.172,1.957.426,4.027,2.8,4.233a34.1,34.1,0,0,0,12.313-1.535,38.642,38.642,0,0,0,15.26-8.652,33.526,33.526,0,0,0,2.628-2.737A37.048,37.048,0,0,0,410.572,523.943Z" transform="translate(-335.721 -485.494)" fill="#007ce2"/>
      </g>
    </g>
    <g id="Group_74132" data-name="Group 74132" transform="translate(432.978 502.406)">
      <g id="Group_74130" data-name="Group 74130" transform="translate(0)">
        <g id="Group_74121" data-name="Group 74121" transform="translate(0 0.321)">
          <path id="Path_38026" data-name="Path 38026" d="M531.516,518.858a6.416,6.416,0,0,1,2.82,2.352,7.05,7.05,0,0,1,0,7.2,6.3,6.3,0,0,1-2.82,2.352,10.539,10.539,0,0,1-4.316.815h-3.24a.527.527,0,0,0-.527.527v4.1a.527.527,0,0,1-.527.527H519.63a.527.527,0,0,1-.527-.527V518.556a.527.527,0,0,1,.527-.527h7.57A10.389,10.389,0,0,1,531.516,518.858Zm-1.59,8.351a2.931,2.931,0,0,0,1.016-2.392,2.961,2.961,0,0,0-1.016-2.419,4.545,4.545,0,0,0-2.966-.842h-3a.527.527,0,0,0-.527.527v5.439a.527.527,0,0,0,.527.527h3A4.548,4.548,0,0,0,529.926,527.209Z" transform="translate(-519.103 -518.029)" fill="#007ce2"/>
        </g>
        <g id="Group_74122" data-name="Group 74122" transform="translate(19.563 0.321)">
          <path id="Path_38027" data-name="Path 38027" d="M568.408,536.736a.526.526,0,0,1-.433-.227l-3.451-4.984h-3.454a.527.527,0,0,0-.527.527v4.157a.527.527,0,0,1-.527.527H556.74a.527.527,0,0,1-.527-.527V518.556a.527.527,0,0,1,.527-.527h7.57a10.389,10.389,0,0,1,4.316.829,6.414,6.414,0,0,1,2.82,2.352,6.482,6.482,0,0,1,.989,3.608,6.35,6.35,0,0,1-1,3.594,6.179,6.179,0,0,1-2.315,2.056.522.522,0,0,0-.179.761l3.264,4.678a.527.527,0,0,1-.432.829ZM567.036,522.4a4.545,4.545,0,0,0-2.966-.842h-3a.527.527,0,0,0-.527.527v5.466a.527.527,0,0,0,.527.527h3a4.5,4.5,0,0,0,2.966-.855,3.371,3.371,0,0,0,0-4.823Z" transform="translate(-556.213 -518.029)" fill="#007ce2"/>
        </g>
        <g id="Group_74123" data-name="Group 74123" transform="translate(37.681)">
          <path id="Path_38028" data-name="Path 38028" d="M595.568,535.512a9.313,9.313,0,0,1-3.662-3.461,9.955,9.955,0,0,1,0-9.915,9.325,9.325,0,0,1,3.662-3.461,11.576,11.576,0,0,1,10.489,0,9.541,9.541,0,0,1,0,16.836,11.576,11.576,0,0,1-10.489,0Zm8.244-3.193a5.47,5.47,0,0,0,2.1-2.124,6.69,6.69,0,0,0,0-6.2,5.46,5.46,0,0,0-2.1-2.124,6.257,6.257,0,0,0-5.986,0,5.456,5.456,0,0,0-2.1,2.124,6.69,6.69,0,0,0,0,6.2,5.466,5.466,0,0,0,2.1,2.124,6.264,6.264,0,0,0,5.986,0Z" transform="translate(-590.584 -517.42)" fill="#007ce2"/>
        </g>
        <g id="Group_74124" data-name="Group 74124" transform="translate(68.974 0.321)">
          <path id="Path_38029" data-name="Path 38029" d="M662.36,518.858a6.415,6.415,0,0,1,2.819,2.352,7.051,7.051,0,0,1,0,7.2,6.3,6.3,0,0,1-2.819,2.352,10.541,10.541,0,0,1-4.316.815H654.8a.527.527,0,0,0-.527.527v4.1a.527.527,0,0,1-.527.527h-3.275a.527.527,0,0,1-.527-.527V518.556a.527.527,0,0,1,.527-.527h7.57A10.391,10.391,0,0,1,662.36,518.858Zm-1.59,8.351a2.933,2.933,0,0,0,1.016-2.392,2.963,2.963,0,0,0-1.016-2.419,4.545,4.545,0,0,0-2.966-.842h-3a.527.527,0,0,0-.527.527v5.439a.527.527,0,0,0,.527.527h3A4.548,4.548,0,0,0,660.77,527.209Z" transform="translate(-649.947 -518.029)" fill="#007ce2"/>
        </g>
        <g id="Group_74125" data-name="Group 74125" transform="translate(88.536 0.321)">
          <path id="Path_38030" data-name="Path 38030" d="M704.213,518.556v17.653a.527.527,0,0,1-.527.527h-3.275a.527.527,0,0,1-.527-.527v-6.616a.527.527,0,0,0-.527-.527h-7.444a.527.527,0,0,0-.527.527v6.616a.527.527,0,0,1-.527.527h-3.275a.527.527,0,0,1-.527-.527V518.556a.527.527,0,0,1,.527-.527h3.275a.527.527,0,0,1,.527.527v6.322a.527.527,0,0,0,.527.527h7.444a.527.527,0,0,0,.527-.527v-6.322a.527.527,0,0,1,.527-.527h3.275A.527.527,0,0,1,704.213,518.556Z" transform="translate(-687.056 -518.029)" fill="#007ce2"/>
        </g>
        <g id="Group_74126" data-name="Group 74126" transform="translate(107.942 0.321)">
          <path id="Path_38031" data-name="Path 38031" d="M735.035,530.255v5.954a.527.527,0,0,1-.527.527h-3.275a.527.527,0,0,1-.527-.527V530.2a.526.526,0,0,0-.075-.272l-6.685-11.1a.527.527,0,0,1,.452-.8h3.365a.526.526,0,0,1,.452.255l4.392,7.3a.527.527,0,0,0,.9,0l4.392-7.3a.528.528,0,0,1,.452-.255h3.019a.527.527,0,0,1,.451.8l-6.712,11.156A.525.525,0,0,0,735.035,530.255Z" transform="translate(-723.868 -518.029)" fill="#007ce2"/>
        </g>
        <g id="Group_74127" data-name="Group 74127" transform="translate(126.294)">
          <path id="Path_38032" data-name="Path 38032" d="M761.879,536.168a10.708,10.708,0,0,1-2.976-1.312.52.52,0,0,1-.173-.646l1.035-2.3a.521.521,0,0,1,.751-.233,10.443,10.443,0,0,0,2.364,1.08,10.725,10.725,0,0,0,3.314.534,5.291,5.291,0,0,0,2.726-.548,1.654,1.654,0,0,0,.882-1.456,1.393,1.393,0,0,0-.521-1.109,3.956,3.956,0,0,0-1.336-.708q-.816-.266-2.205-.588a30.276,30.276,0,0,1-3.5-1.016,5.678,5.678,0,0,1-2.338-1.63,4.4,4.4,0,0,1-.976-2.993,5.209,5.209,0,0,1,.882-2.953,5.933,5.933,0,0,1,2.659-2.1,10.84,10.84,0,0,1,4.342-.775,14.4,14.4,0,0,1,3.5.428,10.717,10.717,0,0,1,2.6,1,.522.522,0,0,1,.221.654l-.943,2.321a.529.529,0,0,1-.737.265,10.2,10.2,0,0,0-4.668-1.191,4.863,4.863,0,0,0-2.686.588,1.8,1.8,0,0,0-.869,1.55,1.515,1.515,0,0,0,1,1.43,15.767,15.767,0,0,0,3.06.922,30.616,30.616,0,0,1,3.5,1.015,5.806,5.806,0,0,1,2.338,1.6,4.3,4.3,0,0,1,.976,2.966,5.1,5.1,0,0,1-.9,2.926,6.016,6.016,0,0,1-2.686,2.1,10.95,10.95,0,0,1-4.356.775A15.309,15.309,0,0,1,761.879,536.168Z" transform="translate(-758.683 -517.42)" fill="#007ce2"/>
        </g>
        <g id="Group_74128" data-name="Group 74128" transform="translate(144.683 0.321)">
          <path id="Path_38033" data-name="Path 38033" d="M794.093,518.029h3.275a.527.527,0,0,1,.527.527v17.653a.527.527,0,0,1-.527.527h-3.275a.527.527,0,0,1-.527-.527V518.556A.527.527,0,0,1,794.093,518.029Z" transform="translate(-793.566 -518.029)" fill="#007ce2"/>
        </g>
        <g id="Group_74129" data-name="Group 74129" transform="translate(152.272)">
          <path id="Path_38034" data-name="Path 38034" d="M812.947,535.512a9.313,9.313,0,0,1-3.662-3.461,9.952,9.952,0,0,1,0-9.915,9.325,9.325,0,0,1,3.662-3.461,11.577,11.577,0,0,1,10.489,0,9.541,9.541,0,0,1,0,16.836,11.577,11.577,0,0,1-10.489,0Zm8.244-3.193a5.469,5.469,0,0,0,2.1-2.124,6.689,6.689,0,0,0,0-6.2,5.459,5.459,0,0,0-2.1-2.124,6.257,6.257,0,0,0-5.986,0,5.455,5.455,0,0,0-2.1,2.124,6.69,6.69,0,0,0,0,6.2,5.465,5.465,0,0,0,2.1,2.124,6.264,6.264,0,0,0,5.986,0Z" transform="translate(-807.963 -517.42)" fill="#007ce2"/>
        </g>
      </g>
      <g id="Group_74131" data-name="Group 74131" transform="translate(0.146 32.1)">
        <path id="Path_38035" data-name="Path 38035" d="M519.38,587.514v-9.008h3.694a3.38,3.38,0,0,1,2.144.614,2.309,2.309,0,0,1,.354,3.062,2.291,2.291,0,0,1-1.17.765v-.1a2.2,2.2,0,0,1,1.328.746,2.231,2.231,0,0,1,.481,1.468,2.2,2.2,0,0,1-.791,1.816,3.468,3.468,0,0,1-2.233.639Zm1.152-5.06h2.352a2.409,2.409,0,0,0,1.481-.38,1.346,1.346,0,0,0,.493-1.139,1.309,1.309,0,0,0-.487-1.107,2.435,2.435,0,0,0-1.487-.373h-2.352Zm0,4.111h2.555a2.427,2.427,0,0,0,1.506-.379,1.409,1.409,0,0,0,.481-1.177,1.437,1.437,0,0,0-.487-1.189,2.37,2.37,0,0,0-1.5-.392h-2.555Z" transform="translate(-519.38 -578.405)" fill="#737373"/>
        <path id="Path_38036" data-name="Path 38036" d="M536.972,587.514v-9.008h5.757v.962h-4.605v2.986h4.352v.974h-4.352v3.125h4.605v.961Z" transform="translate(-527.698 -578.405)" fill="#737373"/>
        <path id="Path_38037" data-name="Path 38037" d="M552.332,587.514v-9.008H553.5v8.021h4.454v.987Z" transform="translate(-534.961 -578.405)" fill="#737373"/>
        <path id="Path_38038" data-name="Path 38038" d="M566.684,587.514v-9.008h1.164v9.008Z" transform="translate(-541.748 -578.405)" fill="#737373"/>
        <path id="Path_38039" data-name="Path 38039" d="M574.219,587.514v-9.008h5.756v.962H575.37v2.986h4.352v.974H575.37v3.125h4.605v.961Z" transform="translate(-545.311 -578.405)" fill="#737373"/>
        <path id="Path_38040" data-name="Path 38040" d="M591.463,587.514l-3.947-9.008h1.227l3.453,8.034h-.443l3.454-8.034h1.214l-3.96,9.008Z" transform="translate(-551.598 -578.405)" fill="#737373"/>
        <path id="Path_38041" data-name="Path 38041" d="M607.627,587.514v-9.008h5.756v.962h-4.605v2.986h4.352v.974h-4.352v3.125h4.605v.961Z" transform="translate(-561.108 -578.405)" fill="#737373"/>
        <path id="Path_38042" data-name="Path 38042" d="M631.475,587.514v-4.048l.253.8-3.82-5.756h1.366l2.986,4.643h-.38l3-4.643h1.341l-3.808,5.756.24-.8v4.048Z" transform="translate(-570.697 -578.405)" fill="#737373"/>
        <path id="Path_38043" data-name="Path 38043" d="M649.936,587.525a4.217,4.217,0,0,1-2.207-.557,3.7,3.7,0,0,1-1.437-1.594,6.262,6.262,0,0,1-.006-4.915,3.667,3.667,0,0,1,1.43-1.587,4.677,4.677,0,0,1,4.428,0,3.666,3.666,0,0,1,1.43,1.587,6.256,6.256,0,0,1-.006,4.915,3.709,3.709,0,0,1-1.43,1.594A4.183,4.183,0,0,1,649.936,587.525Zm0-.975a2.643,2.643,0,0,0,2.157-.943,4.141,4.141,0,0,0,.779-2.7,4.087,4.087,0,0,0-.779-2.688,2.975,2.975,0,0,0-4.326.006,4.092,4.092,0,0,0-.778,2.682,4.145,4.145,0,0,0,.778,2.695A2.65,2.65,0,0,0,649.936,586.55Z" transform="translate(-579.152 -578.314)" fill="#737373"/>
        <path id="Path_38044" data-name="Path 38044" d="M669.709,587.616a3.646,3.646,0,0,1-2.7-.924,3.724,3.724,0,0,1-.917-2.733v-5.453h1.151v5.541a2.7,2.7,0,0,0,.626,1.943,2.437,2.437,0,0,0,1.841.651,2.385,2.385,0,0,0,1.822-.658,2.722,2.722,0,0,0,.62-1.936v-5.541h1.164v5.453a3.726,3.726,0,0,1-.917,2.726A3.614,3.614,0,0,1,669.709,587.616Z" transform="translate(-588.752 -578.405)" fill="#737373"/>
        <path id="Path_38045" data-name="Path 38045" d="M696.14,587.525a4.371,4.371,0,0,1-2.252-.557,3.692,3.692,0,0,1-1.461-1.594,5.509,5.509,0,0,1-.513-2.467,5.424,5.424,0,0,1,.513-2.454,3.707,3.707,0,0,1,1.461-1.581,4.367,4.367,0,0,1,2.252-.557,5,5,0,0,1,1.7.285,3.714,3.714,0,0,1,1.36.842l-.43.885a4.247,4.247,0,0,0-1.259-.778,3.856,3.856,0,0,0-1.36-.234,2.769,2.769,0,0,0-2.232.93,4,4,0,0,0-.791,2.663,4.069,4.069,0,0,0,.784,2.682,2.757,2.757,0,0,0,2.239.936,3.842,3.842,0,0,0,1.36-.234,4.214,4.214,0,0,0,1.259-.778l.43.886a3.72,3.72,0,0,1-1.36.841A4.987,4.987,0,0,1,696.14,587.525Z" transform="translate(-600.963 -578.314)" fill="#737373"/>
        <path id="Path_38046" data-name="Path 38046" d="M709.628,587.514h-1.2l3.985-9.008h1l4,9.008h-1.189l-3.492-8.134h.392Zm.506-2.265.417-.961h4.706l.417.961Z" transform="translate(-608.771 -578.405)" fill="#737373"/>
        <path id="Path_38047" data-name="Path 38047" d="M729.042,587.514v-9.008h.886l5.617,7.452-.317.089v-7.54h1.114v9.008h-.9l-5.6-7.439.29-.1v7.54Z" transform="translate(-618.519 -578.405)" fill="#737373"/>
      </g>
    </g>
  </g>
</svg>
