<svg xmlns="http://www.w3.org/2000/svg" width="51.105" height="63.852" viewBox="0 0 51.105 63.852">
  <g id="Group_74112" data-name="Group 74112" transform="translate(-305.158 -2589.159)">
    <path id="Path_38008" data-name="Path 38008" d="M325.357,2596.83l-2.715,24.128H309.373a2.715,2.715,0,0,0-2.715,2.715h0a2.716,2.716,0,0,0,2.715,2.715h17.8l9.615-25.638" transform="translate(0 15.698)" fill="none" stroke="#007ce2" stroke-linecap="round" stroke-linejoin="round" stroke-width="3"/>
    <path id="Path_38009" data-name="Path 38009" d="M312.132,2610.164l-2.467-6.734a2.718,2.718,0,0,1,.95-3.126l4.4-3.708a7.092,7.092,0,0,1,7.737-.917l12.344,6.17,7.528-5.649a3.065,3.065,0,0,1,4.271.588h0a3.064,3.064,0,0,1-.6,4.317l-10.526,7.872-6.163-3.339" transform="translate(7.232 10.867)" fill="none" stroke="#007ce2" stroke-linecap="round" stroke-linejoin="round" stroke-width="3"/>
    <path id="Path_38010" data-name="Path 38010" d="M316.141,2600.5l10.576,6.167,3.4,16.035a3.1,3.1,0,0,1-1.964,3.551h0a3.1,3.1,0,0,1-4.094-2.272l-2.775-13.24-7.294-3.112" transform="translate(18.662 25.048)" fill="none" stroke="#007ce2" stroke-linecap="round" stroke-linejoin="round" stroke-width="3"/>
    <rect id="Rectangle_146807" data-name="Rectangle 146807" width="12.216" height="12.216" rx="6" transform="translate(331.693 2590.659)" fill="none" stroke="#ff6158" stroke-linecap="round" stroke-linejoin="round" stroke-width="3"/>
  </g>
</svg>
