<svg xmlns="http://www.w3.org/2000/svg" width="63.007" height="56.643" viewBox="0 0 63.007 56.643">
  <g id="Group_73944" data-name="Group 73944" transform="translate(-9.609 -17.464)">
    <path id="Path_37925" data-name="Path 37925" d="M39.594,77.606A23.258,23.258,0,0,0,54.073,62.887q.263-.819.465-1.656a1.262,1.262,0,0,0-1.226-1.559h-6.4s-17.792,0-17.793-.016c0,0-2.525,0-2.523.016H10.87a1.263,1.263,0,0,0-1.226,1.559A23.027,23.027,0,0,0,32.093,78.883,22.778,22.778,0,0,0,39.594,77.606ZM28.5,62.2l-2.79,1.987a1.262,1.262,0,0,0,1.464,2.056l3.658-2.605V68.23a1.262,1.262,0,0,0,2.525,0V63.635l3.656,2.605a1.262,1.262,0,0,0,1.464-2.056L35.686,62.2h9.526a13.993,13.993,0,0,1-26.241,0Zm3.594,14.162A20.505,20.505,0,0,1,12.539,62.2h3.782a16.5,16.5,0,0,0,31.541,0h3.78A20.5,20.5,0,0,1,32.092,76.358Z" transform="translate(0 -5.785)" fill="#e1443b"/>
    <circle id="Ellipse_18" data-name="Ellipse 18" cx="1.294" cy="1.294" r="1.294" transform="translate(60.439 49.712)"/>
    <circle id="Ellipse_19" data-name="Ellipse 19" cx="1.293" cy="1.293" r="1.293" transform="translate(64.753 48.851)"/>
    <path id="Path_37926" data-name="Path 37926" d="M71.286,64.531a1.294,1.294,0,1,0,1.293,1.294A1.3,1.3,0,0,0,71.286,64.531Z" transform="translate(-8.279 -6.453)"/>
    <circle id="Ellipse_20" data-name="Ellipse 20" cx="1.293" cy="1.293" r="1.293" transform="translate(53.928 64.304)"/>
    <circle id="Ellipse_21" data-name="Ellipse 21" cx="1.293" cy="1.293" r="1.293" transform="translate(58.22 62.199)"/>
    <circle id="Ellipse_22" data-name="Ellipse 22" cx="1.293" cy="1.293" r="1.293" transform="translate(63.438 53.538)"/>
    <path id="Path_37927" data-name="Path 37927" d="M64.532,65.51A1.293,1.293,0,1,0,65.825,66.8,1.3,1.3,0,0,0,64.532,65.51Z" transform="translate(-7.353 -6.587)"/>
    <circle id="Ellipse_23" data-name="Ellipse 23" cx="1.294" cy="1.294" r="1.294" transform="translate(59.082 54.379)"/>
    <circle id="Ellipse_24" data-name="Ellipse 24" cx="1.294" cy="1.294" r="1.294" transform="translate(61.302 39.935)"/>
    <circle id="Ellipse_25" data-name="Ellipse 25" cx="1.293" cy="1.293" r="1.293" transform="translate(63.028 44.131)"/>
    <circle id="Ellipse_26" data-name="Ellipse 26" cx="1.294" cy="1.294" r="1.294" transform="translate(58.673 44.973)"/>
    <circle id="Ellipse_27" data-name="Ellipse 27" cx="1.294" cy="1.294" r="1.294" transform="translate(57.358 38.258)"/>
    <g id="Group_73943" data-name="Group 73943" transform="translate(26.531 17.464)">
      <path id="Path_37928" data-name="Path 37928" d="M57.673,28.567a16.18,16.18,0,0,0,2.39-1.979c2.686-2.686,4.7-6.454,2.779-8.378a2.671,2.671,0,0,0-1.958-.746c-1.789,0-4.251,1.349-6.421,3.521-.354.354-.686.718-1,1.087v-.857a1.262,1.262,0,0,0-2.525,0v6.728A23.134,23.134,0,0,0,29.226,48.649a1.27,1.27,0,0,0,1.257,1.4h0a1.249,1.249,0,0,0,1.249-1.114A20.575,20.575,0,1,1,53.109,71.557a1.033,1.033,0,0,0-.352.079l-.984.412a1.071,1.071,0,0,0,.387,2.06H52.2a23.1,23.1,0,0,0,5.468-45.54Zm-4.181-.991H53.48a.665.665,0,0,1-.015-.167V27.3c.061-.739.772-2.521,2.782-4.53,1.826-1.826,3.715-2.781,4.636-2.781.09,0,.147.01.162.006.152.446-.438,2.478-2.767,4.807-1.826,1.826-3.715,2.781-4.635,2.781C53.567,27.583,53.517,27.576,53.492,27.576Z" transform="translate(-29.219 -17.464)"/>
    </g>
  </g>
</svg>
