<svg xmlns="http://www.w3.org/2000/svg" width="457" height="290" viewBox="0 0 457 290">
  <g id="Group_74037" data-name="Group 74037" transform="translate(0.498)" style="mix-blend-mode: multiply;isolation: isolate">
    <rect id="Rectangle_146727" data-name="Rectangle 146727" width="457" height="290" transform="translate(-0.498)" fill="#fff"/>
    <g id="Layer_1" data-name="Layer 1" transform="translate(2543.514 -202.972)">
      <g id="Group_74279" data-name="Group 74279" transform="translate(-2416.012 281.972)">
        <path id="Path_38157" data-name="Path 38157" d="M-2208.215,327.312c-.011-.119-.018-.24-.03-.36-.07-.689-.174-1.374-.3-2.056-.03-.158-.062-.316-.094-.475-.136-.662-.294-1.319-.483-1.973-.047-.165-.1-.327-.152-.49q-.259-.841-.574-1.671c-.08-.208-.159-.417-.243-.625-.215-.528-.452-1.053-.7-1.575-.117-.247-.233-.492-.357-.737-.268-.528-.557-1.052-.858-1.572-.169-.291-.345-.579-.524-.867-.234-.377-.481-.752-.733-1.125q-.43-.639-.894-1.266c-.195-.265-.4-.528-.6-.791q-.6-.775-1.258-1.537c-.2-.23-.394-.459-.6-.686-.306-.341-.615-.681-.936-1.019a.122.122,0,0,1,0,.023c-14.933-15.719-46.056-26.541-82.067-26.541-50.538,0-91.509,21.293-91.509,47.56,0,8.1,3.916,15.72,10.792,22.393.045.045.088.09.134.135l.011.01q.834.8,1.728,1.587c.051.045.1.091.15.137.582.508,1.186,1.009,1.8,1.506.07.055.132.111.2.165q.93.742,1.915,1.462c.071.053.137.108.21.16q1.092.8,2.244,1.57l.086.058q2.681,1.79,5.673,3.439l.456.249q2.81,1.525,5.868,2.918.419.191.841.379c.618.274,1.239.547,1.871.814.207.087.422.17.63.257q1.7.7,3.459,1.362c.429.161.858.321,1.293.478.571.206,1.145.411,1.727.611s1.143.384,1.719.572q1.2.4,2.432.77c.617.188,1.235.375,1.861.556.521.151,1.046.3,1.572.444q1.083.3,2.182.581c.542.14,1.084.279,1.631.415q1.389.339,2.8.658c.461.1.925.2,1.39.3q1.261.27,2.543.52c.37.073.736.15,1.109.22q1.752.329,3.535.621c.394.065.792.125,1.188.188q1.419.221,2.854.421c.363.049.721.1,1.084.149q1.884.249,3.8.457c.313.033.626.062.938.094q1.588.162,3.191.3c.361.029.721.061,1.083.089q2,.153,4.018.264c.2.011.4.018.6.028q1.781.089,3.585.141c.371.011.743.023,1.116.031,1.389.032,2.785.054,4.19.054h0a172.821,172.821,0,0,0,22.869-1.5,152.482,152.482,0,0,0,16.8-3.193,126.44,126.44,0,0,0,15.078-4.759q3.522-1.368,6.776-2.906a71.561,71.561,0,0,0,18.935-12.535,45.616,45.616,0,0,0,3.853-4.158c4.631-5.691,7.191-11.947,7.191-18.514C-2208.107,328.787-2208.15,328.049-2208.215,327.312Zm-27.748,33.8c-16.963,8.817-39.568,13.673-63.65,13.673-28.343,0-54.606-6.9-71.287-18.194,16.318,5.707,35.5,8.779,55.435,8.779,26.584,0,51.613-5.4,70.476-15.2,17.986-9.349,28.46-21.714,29.84-35.089a25.49,25.49,0,0,1,4.747,14.451C-2210.4,341.332-2219.48,352.548-2235.963,361.115Z" transform="translate(2399.615 -281.972)"/>
        <g id="Group_74273" data-name="Group 74273" transform="translate(42.772 25.354)">
          <path id="Path_38158" data-name="Path 38158" d="M-2289.352,396.234v-2.322h.7a10.909,10.909,0,0,0,1.769-.135,3.574,3.574,0,0,0,1.443-.554,2.757,2.757,0,0,0,.972-1.2,5.155,5.155,0,0,0,.351-2.079V362.838a4.451,4.451,0,0,0-.365-1.957,2.8,2.8,0,0,0-.985-1.149,3.564,3.564,0,0,0-1.445-.525,11.929,11.929,0,0,0-1.741-.122h-.7v-2.322h15.524a20.5,20.5,0,0,1,6.047.8,11.271,11.271,0,0,1,4.239,2.295,9.3,9.3,0,0,1,2.5,3.631,13.324,13.324,0,0,1,.824,4.833,14.581,14.581,0,0,1-.771,4.724,10.188,10.188,0,0,1-2.525,4.01,12.5,12.5,0,0,1-4.588,2.78,20.258,20.258,0,0,1-6.939,1.041h-3.482v9.341a4.463,4.463,0,0,0,.365,1.957,2.614,2.614,0,0,0,.986,1.12,3.782,3.782,0,0,0,1.443.5,11.886,11.886,0,0,0,1.742.122h1.836v2.322Zm10.826-17.981h2.942a15.287,15.287,0,0,0,4.294-.527,6.53,6.53,0,0,0,2.915-1.7,7.028,7.028,0,0,0,1.66-3.024,16.474,16.474,0,0,0,.527-4.468,15.753,15.753,0,0,0-.459-4.037,6.789,6.789,0,0,0-1.484-2.848,6.181,6.181,0,0,0-2.66-1.688,12.524,12.524,0,0,0-3.982-.553h-3.753Z" transform="translate(2289.352 -356.763)" fill="#fff"/>
          <path id="Path_38159" data-name="Path 38159" d="M-2167.933,396.234v-2.322h.728a10.883,10.883,0,0,0,1.768-.135,3.458,3.458,0,0,0,1.431-.554,2.893,2.893,0,0,0,.972-1.2,4.98,4.98,0,0,0,.365-2.079v-12.96h-17.98v12.96a4.981,4.981,0,0,0,.365,2.079,2.89,2.89,0,0,0,.972,1.2,3.471,3.471,0,0,0,1.445.554,10.96,10.96,0,0,0,1.754.135h.729v2.322h-16.09v-2.322h.7a10.9,10.9,0,0,0,1.769-.135,3.573,3.573,0,0,0,1.443-.554,2.753,2.753,0,0,0,.972-1.2,5.15,5.15,0,0,0,.351-2.079V362.838a4.455,4.455,0,0,0-.365-1.957,2.8,2.8,0,0,0-.986-1.149,3.564,3.564,0,0,0-1.443-.525,11.955,11.955,0,0,0-1.742-.122h-.7v-2.322h16.09v2.322h-.729a11,11,0,0,0-1.754.135,3.482,3.482,0,0,0-1.445.553,2.912,2.912,0,0,0-.972,1.2,4.981,4.981,0,0,0-.365,2.08V374.23h17.98V363.054a4.98,4.98,0,0,0-.365-2.08,2.915,2.915,0,0,0-.972-1.2,3.469,3.469,0,0,0-1.431-.553,10.918,10.918,0,0,0-1.768-.135h-.728v-2.322h16.09v2.322h-.7a10.939,10.939,0,0,0-1.769.135,3.575,3.575,0,0,0-1.443.553,2.786,2.786,0,0,0-.973,1.2,5.173,5.173,0,0,0-.35,2.08v27.159a4.474,4.474,0,0,0,.365,1.957,2.613,2.613,0,0,0,.986,1.12,3.774,3.774,0,0,0,1.444.5,11.87,11.87,0,0,0,1.742.122h.7v2.322Z" transform="translate(2224.872 -356.763)" fill="#fff"/>
          <path id="Path_38160" data-name="Path 38160" d="M-2028.045,376.445a27.588,27.588,0,0,1-1.134,8.193,17.072,17.072,0,0,1-3.375,6.237,14.752,14.752,0,0,1-5.615,3.968,20.567,20.567,0,0,1-7.884,1.391h-16.927v-2.322h.7a10.9,10.9,0,0,0,1.768-.135,3.577,3.577,0,0,0,1.445-.554,2.751,2.751,0,0,0,.971-1.2,5.133,5.133,0,0,0,.352-2.079V362.838a4.459,4.459,0,0,0-.365-1.957,2.808,2.808,0,0,0-.985-1.149,3.575,3.575,0,0,0-1.445-.525,11.949,11.949,0,0,0-1.741-.122h-.7v-2.322h16.927a20.751,20.751,0,0,1,7.613,1.31,14.967,14.967,0,0,1,5.657,3.82,16.779,16.779,0,0,1,3.522,6.182A26.567,26.567,0,0,1-2028.045,376.445Zm-19.3,16.981a13.845,13.845,0,0,0,5.764-1.12,10.607,10.607,0,0,0,4.118-3.28,14.872,14.872,0,0,0,2.469-5.319,28.862,28.862,0,0,0,.824-7.262q0-8.236-3.281-12.581t-9.842-4.346h-4.859v33.908Z" transform="translate(2140.221 -356.763)" fill="#fff"/>
        </g>
        <g id="Group_74274" data-name="Group 74274" transform="translate(0 105.117)">
          <path id="Path_38161" data-name="Path 38161" d="M-2416.012,603.773v-.591h.179a2.665,2.665,0,0,0,.45-.035.925.925,0,0,0,.369-.141.705.705,0,0,0,.248-.306,1.325,1.325,0,0,0,.089-.531v-6.907a1.133,1.133,0,0,0-.094-.5.708.708,0,0,0-.251-.291.893.893,0,0,0-.368-.135,3.059,3.059,0,0,0-.443-.031h-.179v-.592h3.957a5.237,5.237,0,0,1,1.541.2,2.86,2.86,0,0,1,1.08.584,2.354,2.354,0,0,1,.636.926,3.371,3.371,0,0,1,.21,1.231,3.721,3.721,0,0,1-.2,1.2,2.607,2.607,0,0,1-.643,1.021,3.192,3.192,0,0,1-1.17.708,5.153,5.153,0,0,1-1.769.266h-.887v2.38a1.139,1.139,0,0,0,.094.5.654.654,0,0,0,.251.286.956.956,0,0,0,.369.127,2.918,2.918,0,0,0,.443.032h.468v.591Zm2.759-4.582h.75a3.912,3.912,0,0,0,1.094-.134,1.665,1.665,0,0,0,.743-.433,1.785,1.785,0,0,0,.422-.771,4.154,4.154,0,0,0,.135-1.138,4.028,4.028,0,0,0-.117-1.028,1.738,1.738,0,0,0-.378-.726,1.591,1.591,0,0,0-.678-.43,3.213,3.213,0,0,0-1.015-.141h-.957Z" transform="translate(2416.012 -593.068)" fill="#1a1818"/>
          <path id="Path_38162" data-name="Path 38162" d="M-2383.786,604.552a4.432,4.432,0,0,1-.842,2.958,3.094,3.094,0,0,1-2.468.97,3.67,3.67,0,0,1-1.369-.241,2.631,2.631,0,0,1-1.029-.728,3.3,3.3,0,0,1-.646-1.229,5.967,5.967,0,0,1-.224-1.729,4.4,4.4,0,0,1,.835-2.939,3.1,3.1,0,0,1,2.474-.963,3.715,3.715,0,0,1,1.37.238,2.59,2.59,0,0,1,1.027.723,3.252,3.252,0,0,1,.647,1.217A5.912,5.912,0,0,1-2383.786,604.552Zm-5.215,0a8.061,8.061,0,0,0,.1,1.383,3,3,0,0,0,.333,1,1.579,1.579,0,0,0,.6.608,1.813,1.813,0,0,0,.9.207,1.787,1.787,0,0,0,.894-.207,1.553,1.553,0,0,0,.591-.608,3.045,3.045,0,0,0,.328-1,8.526,8.526,0,0,0,.1-1.383,8.143,8.143,0,0,0-.1-1.376,3.015,3.015,0,0,0-.331-.988,1.518,1.518,0,0,0-.595-.6,1.862,1.862,0,0,0-.9-.2,1.838,1.838,0,0,0-.894.2,1.521,1.521,0,0,0-.591.6,2.976,2.976,0,0,0-.329.988A7.925,7.925,0,0,0-2389,604.552Z" transform="translate(2399.115 -597.637)" fill="#1a1818"/>
          <path id="Path_38163" data-name="Path 38163" d="M-2364.553,604.657a3.723,3.723,0,0,0,.468-.027c.142-.018.286-.042.434-.069v.619a1.684,1.684,0,0,1-.234.082c-.1.027-.2.052-.313.072s-.231.037-.354.048-.241.017-.35.017a3.262,3.262,0,0,1-.923-.114,1.407,1.407,0,0,1-.633-.368,1.548,1.548,0,0,1-.368-.673,3.767,3.767,0,0,1-.121-1.026v-4.706h-1.073v-.564a1.767,1.767,0,0,0,.561-.1,1.337,1.337,0,0,0,.539-.345,2.034,2.034,0,0,0,.388-.622,5.04,5.04,0,0,0,.259-.9h.647v1.733h1.844v.805h-1.844v4.747a1.588,1.588,0,0,0,.292,1.06A.985.985,0,0,0-2364.553,604.657Z" transform="translate(2384.396 -594.557)" fill="#1a1818"/>
          <path id="Path_38164" data-name="Path 38164" d="M-2348.724,608.48a3.494,3.494,0,0,1-1.373-.258,2.724,2.724,0,0,1-1.028-.753,3.43,3.43,0,0,1-.643-1.214,5.509,5.509,0,0,1-.224-1.634,4.635,4.635,0,0,1,.812-2.973,2.812,2.812,0,0,1,2.313-1,3.331,3.331,0,0,1,1.224.214,2.368,2.368,0,0,1,.922.636,2.867,2.867,0,0,1,.582,1.052,4.768,4.768,0,0,1,.2,1.462v.646h-4.692a5.886,5.886,0,0,0,.154,1.325,2.6,2.6,0,0,0,.407.911,1.6,1.6,0,0,0,.65.526,2.194,2.194,0,0,0,.887.169,2.659,2.659,0,0,0,.678-.082,2.509,2.509,0,0,0,.567-.221,2.267,2.267,0,0,0,.45-.313,1.859,1.859,0,0,0,.321-.368.445.445,0,0,1,.181.173.54.54,0,0,1,.087.31.873.873,0,0,1-.152.457,1.5,1.5,0,0,1-.46.451,2.844,2.844,0,0,1-.773.344A3.831,3.831,0,0,1-2348.724,608.48Zm-.172-7.073a1.368,1.368,0,0,0-1.207.636,3.815,3.815,0,0,0-.5,1.862h3.24a5.783,5.783,0,0,0-.082-1.018,2.647,2.647,0,0,0-.261-.792,1.327,1.327,0,0,0-.471-.509A1.356,1.356,0,0,0-2348.9,601.407Z" transform="translate(2373.836 -597.637)" fill="#1a1818"/>
          <path id="Path_38165" data-name="Path 38165" d="M-2327.231,607.751v.591h-3.792v-.591h.117a2.69,2.69,0,0,0,.451-.035.89.89,0,0,0,.365-.141.742.742,0,0,0,.247-.306,1.266,1.266,0,0,0,.094-.531v-4.4a1.137,1.137,0,0,0-.094-.5.705.705,0,0,0-.25-.291.938.938,0,0,0-.369-.138,2.738,2.738,0,0,0-.443-.034h-.041v-.592h2.277l.187,1.143h.068a3.12,3.12,0,0,1,.466-.644,1.992,1.992,0,0,1,.515-.392,1.99,1.99,0,0,1,.578-.192,3.821,3.821,0,0,1,.644-.052,2.844,2.844,0,0,1,.994.163,1.859,1.859,0,0,1,.743.5,2.2,2.2,0,0,1,.467.857,4.217,4.217,0,0,1,.162,1.244v3.33a1.5,1.5,0,0,0,.079.531.681.681,0,0,0,.224.306.8.8,0,0,0,.343.141,2.486,2.486,0,0,0,.434.035h.048v.591h-2.456v-4.864a3.7,3.7,0,0,0-.083-.819,1.608,1.608,0,0,0-.265-.6,1.139,1.139,0,0,0-.477-.375,1.813,1.813,0,0,0-.723-.127,1.621,1.621,0,0,0-.809.185,1.491,1.491,0,0,0-.526.5,2.2,2.2,0,0,0-.286.728,4.268,4.268,0,0,0-.085.867v2.973a1.134,1.134,0,0,0,.092.5.656.656,0,0,0,.251.286.963.963,0,0,0,.368.127,2.939,2.939,0,0,0,.443.032Z" transform="translate(2360.022 -597.637)" fill="#1a1818"/>
          <path id="Path_38166" data-name="Path 38166" d="M-2301.282,604.657a3.734,3.734,0,0,0,.468-.027c.141-.018.287-.042.433-.069v.619a1.58,1.58,0,0,1-.233.082c-.1.027-.2.052-.314.072s-.23.037-.353.048-.241.017-.351.017a3.254,3.254,0,0,1-.922-.114,1.419,1.419,0,0,1-.634-.368,1.566,1.566,0,0,1-.367-.673,3.768,3.768,0,0,1-.12-1.026v-4.706h-1.075v-.564a1.759,1.759,0,0,0,.561-.1,1.344,1.344,0,0,0,.541-.345,2.039,2.039,0,0,0,.388-.622,4.988,4.988,0,0,0,.258-.9h.647v1.733h1.843v.805h-1.843v4.747a1.591,1.591,0,0,0,.292,1.06A.983.983,0,0,0-2301.282,604.657Z" transform="translate(2342.537 -594.557)" fill="#1a1818"/>
          <path id="Path_38167" data-name="Path 38167" d="M-2289.862,601.934a2.941,2.941,0,0,0,.444-.032.956.956,0,0,0,.366-.127.659.659,0,0,0,.252-.286,1.147,1.147,0,0,0,.093-.5v-4.466a1.156,1.156,0,0,0-.093-.5.712.712,0,0,0-.252-.291.933.933,0,0,0-.366-.138,2.77,2.77,0,0,0-.444-.034h-.042v-.592h2.518v5.951a1.255,1.255,0,0,0,.093.531.733.733,0,0,0,.248.306.9.9,0,0,0,.368.141,2.7,2.7,0,0,0,.448.035h.184v.591h-4v-.591Zm.957-9.247a1.186,1.186,0,0,1,.061-.414.714.714,0,0,1,.172-.268.625.625,0,0,1,.255-.144,1.132,1.132,0,0,1,.317-.041,1.11,1.11,0,0,1,.309.041.6.6,0,0,1,.251.144.744.744,0,0,1,.171.268,1.114,1.114,0,0,1,.065.414,1.112,1.112,0,0,1-.065.413.746.746,0,0,1-.171.268.625.625,0,0,1-.251.147,1.016,1.016,0,0,1-.309.046,1.035,1.035,0,0,1-.317-.046.653.653,0,0,1-.255-.147.716.716,0,0,1-.172-.268A1.184,1.184,0,0,1-2288.906,592.687Z" transform="translate(2332.828 -591.82)" fill="#1a1818"/>
          <path id="Path_38168" data-name="Path 38168" d="M-2272.657,601.352a1.6,1.6,0,0,0-.657.114.914.914,0,0,0-.392.32,1.22,1.22,0,0,0-.189.489,3.684,3.684,0,0,0-.048.612,1.638,1.638,0,0,1-.891-.2.761.761,0,0,1-.306-.688.974.974,0,0,1,.2-.619,1.48,1.48,0,0,1,.547-.417,3.147,3.147,0,0,1,.809-.237,6.054,6.054,0,0,1,.984-.076,4.468,4.468,0,0,1,1.127.127,1.939,1.939,0,0,1,.805.417,1.753,1.753,0,0,1,.484.753,3.484,3.484,0,0,1,.162,1.138v3.653a2.078,2.078,0,0,0,.048.489.722.722,0,0,0,.152.309.538.538,0,0,0,.271.166,1.511,1.511,0,0,0,.4.048h.04v.591h-1.905l-.221-1.21h-.116q-.222.3-.427.543a2.442,2.442,0,0,1-.455.427,1.965,1.965,0,0,1-.56.28,2.548,2.548,0,0,1-.753.1,2.745,2.745,0,0,1-.871-.134,1.821,1.821,0,0,1-.694-.413,1.883,1.883,0,0,1-.458-.7,2.762,2.762,0,0,1-.165-1,1.875,1.875,0,0,1,.8-1.664,4.568,4.568,0,0,1,2.415-.592l1.17-.04v-.847a5.543,5.543,0,0,0-.042-.7,1.4,1.4,0,0,0-.179-.551.924.924,0,0,0-.4-.357A1.561,1.561,0,0,0-2272.657,601.352Zm-1.707,4.947a1.493,1.493,0,0,0,.28.987,1.075,1.075,0,0,0,.863.327,2.068,2.068,0,0,0,.774-.138,1.671,1.671,0,0,0,.592-.392,1.715,1.715,0,0,0,.374-.619,2.38,2.38,0,0,0,.132-.812V604.51l-.9.042a4.236,4.236,0,0,0-1,.148,1.7,1.7,0,0,0-.649.337,1.217,1.217,0,0,0-.355.533A2.279,2.279,0,0,0-2274.364,606.3Z" transform="translate(2323.371 -597.637)" fill="#1a1818"/>
          <path id="Path_38169" data-name="Path 38169" d="M-2253.818,601.934a2.672,2.672,0,0,0,.45-.035.9.9,0,0,0,.365-.141.743.743,0,0,0,.248-.306,1.276,1.276,0,0,0,.092-.531v-7.553a1.139,1.139,0,0,0-.092-.5.715.715,0,0,0-.251-.293.9.9,0,0,0-.368-.134,3.092,3.092,0,0,0-.444-.031H-2254v-.591h2.663v9.1a1.322,1.322,0,0,0,.089.531.71.71,0,0,0,.248.306.925.925,0,0,0,.368.141,2.676,2.676,0,0,0,.451.035h.179v.591h-4v-.591Z" transform="translate(2309.021 -591.82)" fill="#1a1818"/>
          <path id="Path_38170" data-name="Path 38170" d="M-2223.438,603.773v-.591h.186a2.688,2.688,0,0,0,.45-.035.9.9,0,0,0,.365-.141.756.756,0,0,0,.248-.306,1.288,1.288,0,0,0,.092-.531v-3.3h-4.582v3.3a1.267,1.267,0,0,0,.093.531.75.75,0,0,0,.248.306.9.9,0,0,0,.368.141,2.688,2.688,0,0,0,.447.035h.185v.591h-4.1v-.591h.179a2.685,2.685,0,0,0,.451-.035.928.928,0,0,0,.368-.141.707.707,0,0,0,.248-.306,1.339,1.339,0,0,0,.089-.531v-6.907a1.137,1.137,0,0,0-.093-.5.71.71,0,0,0-.251-.291.907.907,0,0,0-.368-.135,3.079,3.079,0,0,0-.444-.031h-.179v-.592h4.1v.592h-.185a2.814,2.814,0,0,0-.447.034.894.894,0,0,0-.368.142.74.74,0,0,0-.248.306,1.265,1.265,0,0,0-.093.53v2.848h4.582v-2.848a1.285,1.285,0,0,0-.092-.53.745.745,0,0,0-.248-.306.887.887,0,0,0-.365-.142,2.813,2.813,0,0,0-.45-.034h-.186v-.592h4.1v.592h-.179a2.805,2.805,0,0,0-.451.034.909.909,0,0,0-.368.142.7.7,0,0,0-.248.306,1.337,1.337,0,0,0-.089.53v6.921a1.142,1.142,0,0,0,.092.5.659.659,0,0,0,.252.286.963.963,0,0,0,.367.127,2.951,2.951,0,0,0,.444.032h.179v.591Z" transform="translate(2292.793 -593.068)" fill="#1a1818"/>
          <path id="Path_38171" data-name="Path 38171" d="M-2192.719,608.48a3.5,3.5,0,0,1-1.373-.258,2.73,2.73,0,0,1-1.028-.753,3.43,3.43,0,0,1-.643-1.214,5.526,5.526,0,0,1-.224-1.634,4.637,4.637,0,0,1,.812-2.973,2.811,2.811,0,0,1,2.312-1,3.333,3.333,0,0,1,1.224.214,2.367,2.367,0,0,1,.922.636,2.864,2.864,0,0,1,.582,1.052,4.79,4.79,0,0,1,.2,1.462v.646h-4.692a5.9,5.9,0,0,0,.154,1.325,2.615,2.615,0,0,0,.406.911,1.606,1.606,0,0,0,.65.526,2.191,2.191,0,0,0,.887.169,2.659,2.659,0,0,0,.678-.082,2.507,2.507,0,0,0,.568-.221,2.32,2.32,0,0,0,.451-.313,1.826,1.826,0,0,0,.319-.368.44.44,0,0,1,.182.173.538.538,0,0,1,.087.31.87.87,0,0,1-.152.457,1.506,1.506,0,0,1-.46.451,2.853,2.853,0,0,1-.773.344A3.835,3.835,0,0,1-2192.719,608.48Zm-.171-7.073a1.368,1.368,0,0,0-1.208.636,3.82,3.82,0,0,0-.5,1.862h3.241a5.927,5.927,0,0,0-.082-1.018,2.633,2.633,0,0,0-.262-.792,1.325,1.325,0,0,0-.471-.509A1.35,1.35,0,0,0-2192.89,601.407Z" transform="translate(2270.709 -597.637)" fill="#1a1818"/>
          <path id="Path_38172" data-name="Path 38172" d="M-2171.035,601.352a1.6,1.6,0,0,0-.657.114.909.909,0,0,0-.391.32,1.211,1.211,0,0,0-.19.489,3.66,3.66,0,0,0-.048.612,1.635,1.635,0,0,1-.891-.2.759.759,0,0,1-.306-.688.966.966,0,0,1,.2-.619,1.462,1.462,0,0,1,.547-.417,3.141,3.141,0,0,1,.809-.237,6.045,6.045,0,0,1,.983-.076,4.475,4.475,0,0,1,1.129.127,1.937,1.937,0,0,1,.8.417,1.758,1.758,0,0,1,.485.753,3.49,3.49,0,0,1,.163,1.138v3.653a2.109,2.109,0,0,0,.047.489.725.725,0,0,0,.152.309.543.543,0,0,0,.271.166,1.5,1.5,0,0,0,.4.048h.042v.591h-1.906l-.22-1.21h-.118q-.219.3-.427.543a2.435,2.435,0,0,1-.454.427,1.958,1.958,0,0,1-.561.28,2.54,2.54,0,0,1-.753.1,2.753,2.753,0,0,1-.871-.134,1.843,1.843,0,0,1-.695-.413,1.911,1.911,0,0,1-.458-.7,2.757,2.757,0,0,1-.165-1,1.874,1.874,0,0,1,.8-1.664,4.572,4.572,0,0,1,2.415-.592l1.168-.04v-.847a5.556,5.556,0,0,0-.041-.7,1.44,1.44,0,0,0-.179-.551.918.918,0,0,0-.4-.357A1.555,1.555,0,0,0-2171.035,601.352Zm-1.707,4.947a1.493,1.493,0,0,0,.28.987,1.07,1.07,0,0,0,.862.327,2.073,2.073,0,0,0,.775-.138,1.666,1.666,0,0,0,.591-.392,1.7,1.7,0,0,0,.375-.619,2.4,2.4,0,0,0,.13-.812V604.51l-.9.042a4.213,4.213,0,0,0-1,.148,1.7,1.7,0,0,0-.65.337,1.205,1.205,0,0,0-.355.533A2.252,2.252,0,0,0-2172.741,606.3Z" transform="translate(2256.26 -597.637)" fill="#1a1818"/>
          <path id="Path_38173" data-name="Path 38173" d="M-2152.194,601.934a2.677,2.677,0,0,0,.45-.035.9.9,0,0,0,.365-.141.761.761,0,0,0,.249-.306,1.3,1.3,0,0,0,.092-.531v-7.553a1.156,1.156,0,0,0-.092-.5.73.73,0,0,0-.251-.293.9.9,0,0,0-.368-.134,3.108,3.108,0,0,0-.444-.031h-.179v-.591h2.662v9.1a1.315,1.315,0,0,0,.09.531.711.711,0,0,0,.248.306.924.924,0,0,0,.368.141,2.669,2.669,0,0,0,.45.035h.179v.591h-4v-.591Z" transform="translate(2241.911 -591.82)" fill="#1a1818"/>
          <path id="Path_38174" data-name="Path 38174" d="M-2135.86,604.657a3.724,3.724,0,0,0,.468-.027c.142-.018.286-.042.433-.069v.619a1.663,1.663,0,0,1-.234.082c-.1.027-.2.052-.313.072s-.231.037-.354.048-.241.017-.35.017a3.26,3.26,0,0,1-.922-.114,1.41,1.41,0,0,1-.632-.368,1.55,1.55,0,0,1-.368-.673,3.777,3.777,0,0,1-.121-1.026v-4.706h-1.073v-.564a1.764,1.764,0,0,0,.561-.1,1.337,1.337,0,0,0,.539-.345,2.061,2.061,0,0,0,.39-.622,5.11,5.11,0,0,0,.258-.9h.646v1.733h1.844v.805h-1.844v4.747a1.585,1.585,0,0,0,.293,1.06A.982.982,0,0,0-2135.86,604.657Z" transform="translate(2233.294 -594.557)" fill="#1a1818"/>
          <path id="Path_38175" data-name="Path 38175" d="M-2121.039,601.934v.591h-3.79v-.591h.109a2.7,2.7,0,0,0,.452-.035.889.889,0,0,0,.364-.141.732.732,0,0,0,.247-.306,1.247,1.247,0,0,0,.093-.531v-7.553a1.114,1.114,0,0,0-.093-.5.7.7,0,0,0-.25-.293.906.906,0,0,0-.368-.134,3.114,3.114,0,0,0-.445-.031h-.109v-.591h2.593v3.1c0,.128,0,.263-.007.4s-.011.269-.021.389c-.01.137-.018.272-.027.406h.067a2.15,2.15,0,0,1,2.072-1.281,3.215,3.215,0,0,1,1.063.163,1.919,1.919,0,0,1,.78.495,2.183,2.183,0,0,1,.482.857,4.191,4.191,0,0,1,.164,1.244v3.33a1.437,1.437,0,0,0,.082.531.728.728,0,0,0,.228.306.807.807,0,0,0,.344.141,2.448,2.448,0,0,0,.434.035h.04v.591h-2.449v-4.864a3.659,3.659,0,0,0-.083-.819,1.631,1.631,0,0,0-.265-.6,1.13,1.13,0,0,0-.479-.375,1.81,1.81,0,0,0-.722-.127,1.68,1.68,0,0,0-.761.161,1.422,1.422,0,0,0-.529.46,2.108,2.108,0,0,0-.313.723,3.964,3.964,0,0,0-.1.939v2.973a1.136,1.136,0,0,0,.094.5.662.662,0,0,0,.251.286.963.963,0,0,0,.369.127,2.919,2.919,0,0,0,.443.032Z" transform="translate(2223.71 -591.82)" fill="#1a1818"/>
          <path id="Path_38176" data-name="Path 38176" d="M-2078.161,598.73a7.029,7.029,0,0,1-.289,2.088,4.335,4.335,0,0,1-.86,1.589,3.758,3.758,0,0,1-1.43,1.011,5.248,5.248,0,0,1-2.01.355h-4.314v-.591h.18a2.7,2.7,0,0,0,.451-.035.932.932,0,0,0,.367-.141.7.7,0,0,0,.247-.306,1.3,1.3,0,0,0,.091-.531v-6.907a1.14,1.14,0,0,0-.094-.5.714.714,0,0,0-.251-.291.9.9,0,0,0-.367-.135,3.065,3.065,0,0,0-.444-.031h-.18v-.592h4.314a5.282,5.282,0,0,1,1.94.334,3.834,3.834,0,0,1,1.442.973,4.3,4.3,0,0,1,.9,1.575A6.8,6.8,0,0,1-2078.161,598.73Zm-4.92,4.328a3.532,3.532,0,0,0,1.47-.286,2.7,2.7,0,0,0,1.048-.836,3.771,3.771,0,0,0,.63-1.356,7.34,7.34,0,0,0,.21-1.85,5.256,5.256,0,0,0-.836-3.207,2.94,2.94,0,0,0-2.508-1.107h-1.237v8.641Z" transform="translate(2198.77 -593.068)" fill="#1a1818"/>
          <path id="Path_38177" data-name="Path 38177" d="M-2053.067,608.48a3.492,3.492,0,0,1-1.373-.258,2.728,2.728,0,0,1-1.028-.753,3.455,3.455,0,0,1-.644-1.214,5.527,5.527,0,0,1-.223-1.634,4.638,4.638,0,0,1,.812-2.973,2.811,2.811,0,0,1,2.312-1,3.341,3.341,0,0,1,1.225.214,2.382,2.382,0,0,1,.921.636,2.873,2.873,0,0,1,.581,1.052,4.766,4.766,0,0,1,.2,1.462v.646h-4.692a5.858,5.858,0,0,0,.154,1.325,2.6,2.6,0,0,0,.407.911,1.6,1.6,0,0,0,.65.526,2.188,2.188,0,0,0,.887.169,2.654,2.654,0,0,0,.677-.082,2.513,2.513,0,0,0,.568-.221,2.264,2.264,0,0,0,.45-.313,1.791,1.791,0,0,0,.32-.368.445.445,0,0,1,.183.173.548.548,0,0,1,.087.31.88.88,0,0,1-.152.457,1.527,1.527,0,0,1-.46.451,2.845,2.845,0,0,1-.775.344A3.821,3.821,0,0,1-2053.067,608.48Zm-.17-7.073a1.368,1.368,0,0,0-1.208.636,3.8,3.8,0,0,0-.5,1.862h3.24a5.878,5.878,0,0,0-.082-1.018,2.647,2.647,0,0,0-.262-.792,1.322,1.322,0,0,0-.471-.509A1.356,1.356,0,0,0-2053.238,601.407Z" transform="translate(2178.483 -597.637)" fill="#1a1818"/>
          <path id="Path_38178" data-name="Path 38178" d="M-2036.353,601.645v-.592h3.523v.592h-.179a1.015,1.015,0,0,0-.636.166.609.609,0,0,0-.209.516,1.056,1.056,0,0,0,.027.236,2.587,2.587,0,0,0,.082.28l.957,2.662c.058.165.12.348.186.547s.125.4.182.589.109.375.155.546.079.318.1.437h.047a3.689,3.689,0,0,1,.114-.375c.053-.149.112-.312.179-.488s.135-.357.206-.54.139-.36.2-.529l1.011-2.745a1.871,1.871,0,0,0,.1-.331,1.373,1.373,0,0,0,.032-.275.6.6,0,0,0-.23-.529,1.2,1.2,0,0,0-.7-.166h-.1v-.592h3.021v.592h-.173a1.168,1.168,0,0,0-.351.045.609.609,0,0,0-.262.168,1.474,1.474,0,0,0-.224.338q-.107.213-.236.55l-2.223,5.862h-1.286l-2.263-6.212a2.036,2.036,0,0,0-.173-.365.83.83,0,0,0-.206-.231.743.743,0,0,0-.269-.12,1.63,1.63,0,0,0-.357-.034Z" transform="translate(2165.281 -597.903)" fill="#1a1818"/>
          <path id="Path_38179" data-name="Path 38179" d="M-2007.053,608.48a3.486,3.486,0,0,1-1.373-.258,2.731,2.731,0,0,1-1.029-.753,3.434,3.434,0,0,1-.643-1.214,5.518,5.518,0,0,1-.223-1.634,4.628,4.628,0,0,1,.812-2.973,2.809,2.809,0,0,1,2.311-1,3.333,3.333,0,0,1,1.225.214,2.374,2.374,0,0,1,.922.636,2.883,2.883,0,0,1,.581,1.052,4.768,4.768,0,0,1,.2,1.462v.646h-4.692a5.893,5.893,0,0,0,.156,1.325,2.606,2.606,0,0,0,.4.911,1.607,1.607,0,0,0,.651.526,2.2,2.2,0,0,0,.888.169,2.661,2.661,0,0,0,.677-.082,2.55,2.55,0,0,0,.568-.221,2.311,2.311,0,0,0,.45-.313,1.8,1.8,0,0,0,.32-.368.452.452,0,0,1,.183.173.551.551,0,0,1,.086.31.884.884,0,0,1-.151.457,1.507,1.507,0,0,1-.46.451,2.876,2.876,0,0,1-.775.344A3.827,3.827,0,0,1-2007.053,608.48Zm-.172-7.073a1.366,1.366,0,0,0-1.208.636,3.807,3.807,0,0,0-.5,1.862h3.241a5.778,5.778,0,0,0-.083-1.018,2.626,2.626,0,0,0-.261-.792,1.316,1.316,0,0,0-.47-.509A1.355,1.355,0,0,0-2007.225,601.407Z" transform="translate(2148.096 -597.637)" fill="#1a1818"/>
          <path id="Path_38180" data-name="Path 38180" d="M-1989.777,601.934a2.691,2.691,0,0,0,.452-.035.9.9,0,0,0,.364-.141.738.738,0,0,0,.248-.306,1.255,1.255,0,0,0,.093-.531v-7.553a1.12,1.12,0,0,0-.093-.5.713.713,0,0,0-.25-.293.9.9,0,0,0-.368-.134,3.121,3.121,0,0,0-.445-.031h-.177v-.591h2.662v9.1a1.311,1.311,0,0,0,.09.531.7.7,0,0,0,.248.306.923.923,0,0,0,.367.141,2.694,2.694,0,0,0,.451.035h.178v.591h-4v-.591Z" transform="translate(2134.653 -591.82)" fill="#1a1818"/>
          <path id="Path_38181" data-name="Path 38181" d="M-1968.841,604.552a4.423,4.423,0,0,1-.844,2.958,3.09,3.09,0,0,1-2.466.97,3.668,3.668,0,0,1-1.369-.241,2.617,2.617,0,0,1-1.028-.728,3.322,3.322,0,0,1-.648-1.229,6.02,6.02,0,0,1-.223-1.729,4.389,4.389,0,0,1,.836-2.939,3.1,3.1,0,0,1,2.473-.963,3.716,3.716,0,0,1,1.37.238,2.6,2.6,0,0,1,1.028.723,3.273,3.273,0,0,1,.646,1.217A5.945,5.945,0,0,1-1968.841,604.552Zm-5.216,0a8.244,8.244,0,0,0,.1,1.383,3.073,3.073,0,0,0,.333,1,1.575,1.575,0,0,0,.6.608,1.81,1.81,0,0,0,.9.207,1.792,1.792,0,0,0,.894-.207,1.553,1.553,0,0,0,.591-.608,3.029,3.029,0,0,0,.327-1,8.571,8.571,0,0,0,.1-1.383,8.033,8.033,0,0,0-.1-1.376,3.01,3.01,0,0,0-.33-.988,1.521,1.521,0,0,0-.594-.6,1.865,1.865,0,0,0-.9-.2,1.838,1.838,0,0,0-.894.2,1.522,1.522,0,0,0-.591.6,3.015,3.015,0,0,0-.331.988A8.1,8.1,0,0,0-1974.057,604.552Z" transform="translate(2125.044 -597.637)" fill="#1a1818"/>
          <path id="Path_38182" data-name="Path 38182" d="M-1945.628,604.552a7.2,7.2,0,0,1-.19,1.761,3.379,3.379,0,0,1-.553,1.224,2.217,2.217,0,0,1-.9.713,3.1,3.1,0,0,1-1.232.23,2.8,2.8,0,0,1-.736-.089,2.224,2.224,0,0,1-.594-.255,2.115,2.115,0,0,1-.469-.393,2.731,2.731,0,0,1-.354-.5h-.055c.01.243.018.471.027.681,0,.087.008.179.011.273s0,.182.006.264.005.158.008.223,0,.118,0,.156v1.349a1.13,1.13,0,0,0,.093.5.68.68,0,0,0,.251.289.93.93,0,0,0,.368.131,3.023,3.023,0,0,0,.444.032h.042v.591h-3.792v-.591h.111a2.635,2.635,0,0,0,.45-.035.885.885,0,0,0,.365-.141.739.739,0,0,0,.248-.309,1.288,1.288,0,0,0,.092-.534v-7.774a1.138,1.138,0,0,0-.092-.5.705.705,0,0,0-.251-.291.934.934,0,0,0-.368-.138,2.753,2.753,0,0,0-.444-.034h-.179v-.592h2.464l.144,1.274h.055a3.424,3.424,0,0,1,.358-.586,2.047,2.047,0,0,1,.46-.443,2.113,2.113,0,0,1,.591-.282,2.585,2.585,0,0,1,.743-.1,3.084,3.084,0,0,1,1.232.231,2.226,2.226,0,0,1,.9.708,3.366,3.366,0,0,1,.553,1.215A7.064,7.064,0,0,1-1945.628,604.552Zm-3.117-3a2.058,2.058,0,0,0-.918.182,1.393,1.393,0,0,0-.589.553,2.693,2.693,0,0,0-.313.935,8.259,8.259,0,0,0-.093,1.329,8.039,8.039,0,0,0,.093,1.3,2.787,2.787,0,0,0,.317.949,1.477,1.477,0,0,0,.592.582,1.951,1.951,0,0,0,.925.2,1.518,1.518,0,0,0,.795-.2,1.5,1.5,0,0,0,.537-.582,3.1,3.1,0,0,0,.306-.953,7.924,7.924,0,0,0,.1-1.311,7.857,7.857,0,0,0-.1-1.31,2.927,2.927,0,0,0-.306-.933,1.426,1.426,0,0,0-.544-.557A1.624,1.624,0,0,0-1948.745,601.552Z" transform="translate(2110.446 -597.637)" fill="#1a1818"/>
          <path id="Path_38183" data-name="Path 38183" d="M-1923.578,607.751v.591h-3.791v-.591h.186a2.5,2.5,0,0,0,.439-.035.806.806,0,0,0,.344-.141.684.684,0,0,0,.224-.306,1.492,1.492,0,0,0,.079-.531v-4.4a1.293,1.293,0,0,0-.082-.5.68.68,0,0,0-.228-.291.817.817,0,0,0-.344-.138,2.552,2.552,0,0,0-.432-.034h-.042v-.592h2.208l.186,1.143h.068a3.161,3.161,0,0,1,.448-.644,1.919,1.919,0,0,1,.5-.392,1.9,1.9,0,0,1,.558-.192,3.546,3.546,0,0,1,.622-.052,3.072,3.072,0,0,1,.655.069,2.051,2.051,0,0,1,.574.22,1.806,1.806,0,0,1,.473.4,1.92,1.92,0,0,1,.341.6h.117a2.862,2.862,0,0,1,.461-.644,2.018,2.018,0,0,1,.527-.392,2.061,2.061,0,0,1,.584-.192,3.766,3.766,0,0,1,.636-.052,2.705,2.705,0,0,1,.964.163,1.793,1.793,0,0,1,.721.5,2.253,2.253,0,0,1,.454.857,4.291,4.291,0,0,1,.159,1.244v3.33a1.406,1.406,0,0,0,.083.531.706.706,0,0,0,.227.306.8.8,0,0,0,.344.141,2.479,2.479,0,0,0,.433.035h.042v.591h-2.449v-4.864a3.8,3.8,0,0,0-.08-.819,1.626,1.626,0,0,0-.254-.6,1.1,1.1,0,0,0-.457-.375,1.653,1.653,0,0,0-.688-.127,1.488,1.488,0,0,0-.74.168,1.364,1.364,0,0,0-.485.458,1.963,1.963,0,0,0-.265.667,3.908,3.908,0,0,0-.079.8v3.089a1.417,1.417,0,0,0,.082.531.708.708,0,0,0,.228.306.8.8,0,0,0,.343.141,2.476,2.476,0,0,0,.433.035h.042v.591h-2.449v-4.864a3.867,3.867,0,0,0-.079-.819,1.652,1.652,0,0,0-.256-.6,1.1,1.1,0,0,0-.457-.375,1.652,1.652,0,0,0-.688-.127,1.491,1.491,0,0,0-.773.185,1.448,1.448,0,0,0-.506.5,2.233,2.233,0,0,0-.276.728,4.414,4.414,0,0,0-.082.867v2.973a1.152,1.152,0,0,0,.092.5.667.667,0,0,0,.252.286.959.959,0,0,0,.367.127,2.93,2.93,0,0,0,.444.032Z" transform="translate(2093.182 -597.637)" fill="#1a1818"/>
          <path id="Path_38184" data-name="Path 38184" d="M-1883.956,608.48a3.483,3.483,0,0,1-1.372-.258,2.715,2.715,0,0,1-1.03-.753,3.426,3.426,0,0,1-.643-1.214,5.509,5.509,0,0,1-.224-1.634,4.637,4.637,0,0,1,.811-2.973,2.814,2.814,0,0,1,2.312-1,3.346,3.346,0,0,1,1.225.214,2.389,2.389,0,0,1,.922.636,2.887,2.887,0,0,1,.581,1.052,4.774,4.774,0,0,1,.2,1.462v.646h-4.693a5.944,5.944,0,0,0,.154,1.325,2.611,2.611,0,0,0,.407.911,1.612,1.612,0,0,0,.649.526,2.207,2.207,0,0,0,.889.169,2.647,2.647,0,0,0,.677-.082,2.509,2.509,0,0,0,.567-.221,2.272,2.272,0,0,0,.452-.313,1.811,1.811,0,0,0,.32-.368.451.451,0,0,1,.183.173.551.551,0,0,1,.085.31.881.881,0,0,1-.151.457,1.53,1.53,0,0,1-.461.451,2.85,2.85,0,0,1-.774.344A3.831,3.831,0,0,1-1883.956,608.48Zm-.172-7.073a1.366,1.366,0,0,0-1.208.636,3.815,3.815,0,0,0-.5,1.862h3.239a5.783,5.783,0,0,0-.082-1.018,2.633,2.633,0,0,0-.261-.792,1.315,1.315,0,0,0-.472-.509A1.349,1.349,0,0,0-1884.128,601.407Z" transform="translate(2066.736 -597.637)" fill="#1a1818"/>
          <path id="Path_38185" data-name="Path 38185" d="M-1862.462,607.751v.591h-3.79v-.591h.117a2.689,2.689,0,0,0,.45-.035.9.9,0,0,0,.365-.141.763.763,0,0,0,.248-.306,1.291,1.291,0,0,0,.093-.531v-4.4a1.16,1.16,0,0,0-.093-.5.724.724,0,0,0-.252-.291.936.936,0,0,0-.367-.138,2.771,2.771,0,0,0-.444-.034h-.042v-.592h2.277l.186,1.143h.069a3.137,3.137,0,0,1,.465-.644,2.009,2.009,0,0,1,.516-.392,1.972,1.972,0,0,1,.578-.192,3.809,3.809,0,0,1,.643-.052,2.842,2.842,0,0,1,.994.163,1.861,1.861,0,0,1,.744.5,2.207,2.207,0,0,1,.467.857,4.218,4.218,0,0,1,.162,1.244v3.33a1.5,1.5,0,0,0,.079.531.684.684,0,0,0,.224.306.808.808,0,0,0,.344.141,2.471,2.471,0,0,0,.433.035h.049v.591h-2.456v-4.864a3.73,3.73,0,0,0-.082-.819,1.617,1.617,0,0,0-.266-.6,1.121,1.121,0,0,0-.477-.375,1.811,1.811,0,0,0-.723-.127,1.621,1.621,0,0,0-.809.185,1.492,1.492,0,0,0-.526.5,2.169,2.169,0,0,0-.285.728,4.233,4.233,0,0,0-.086.867v2.973a1.133,1.133,0,0,0,.094.5.646.646,0,0,0,.25.286.961.961,0,0,0,.368.127,2.924,2.924,0,0,0,.443.032Z" transform="translate(2052.919 -597.637)" fill="#1a1818"/>
          <path id="Path_38186" data-name="Path 38186" d="M-1836.513,604.657a3.745,3.745,0,0,0,.469-.027c.142-.018.286-.042.432-.069v.619a1.606,1.606,0,0,1-.233.082c-.1.027-.2.052-.313.072s-.231.037-.355.048-.241.017-.351.017a3.26,3.26,0,0,1-.921-.114,1.406,1.406,0,0,1-.632-.368,1.542,1.542,0,0,1-.368-.673,3.757,3.757,0,0,1-.121-1.026v-4.706h-1.073v-.564a1.763,1.763,0,0,0,.561-.1,1.336,1.336,0,0,0,.54-.345,2.061,2.061,0,0,0,.39-.622,5.171,5.171,0,0,0,.258-.9h.646v1.733h1.844v.805h-1.844v4.747a1.592,1.592,0,0,0,.293,1.06A.982.982,0,0,0-1836.513,604.657Z" transform="translate(2035.612 -594.557)" fill="#1a1818"/>
        </g>
        <g id="Group_74278" data-name="Group 74278" transform="translate(16.866 125.91)">
          <g id="Group_74275" data-name="Group 74275" transform="translate(141.095 3.217)">
            <rect id="Rectangle_146904" data-name="Rectangle 146904" width="25.174" height="0.44" fill="#1a1818"/>
          </g>
          <g id="Group_74276" data-name="Group 74276" transform="translate(0 3.437)">
            <rect id="Rectangle_146905" data-name="Rectangle 146905" width="25.174" height="0.441" fill="#1a1818"/>
          </g>
          <g id="Group_74277" data-name="Group 74277" transform="translate(28.348)">
            <path id="Path_38187" data-name="Path 38187" d="M-2281.332,659.275h-.825v-6.26h.825Z" transform="translate(2282.158 -652.928)" fill="#1a1818"/>
            <path id="Path_38188" data-name="Path 38188" d="M-2270.5,659.275h-.831l-3.151-4.825v4.825h-.83v-6.26h.83l3.161,4.845v-4.845h.821Z" transform="translate(2277.651 -652.928)" fill="#1a1818"/>
            <path id="Path_38189" data-name="Path 38189" d="M-2255.81,656.316a3.885,3.885,0,0,1-1.546-.75,1.433,1.433,0,0,1-.485-1.1,1.513,1.513,0,0,1,.593-1.223,2.352,2.352,0,0,1,1.537-.484,2.569,2.569,0,0,1,1.15.25,1.881,1.881,0,0,1,.782.689,1.75,1.75,0,0,1,.279.958h-.831a1.145,1.145,0,0,0-.36-.9,1.473,1.473,0,0,0-1.019-.325,1.5,1.5,0,0,0-.952.269.9.9,0,0,0-.343.748.81.81,0,0,0,.325.648,3.193,3.193,0,0,0,1.1.485,5.078,5.078,0,0,1,1.22.484,1.851,1.851,0,0,1,.655.617,1.573,1.573,0,0,1,.212.83,1.466,1.466,0,0,1-.593,1.219,2.539,2.539,0,0,1-1.586.457,2.933,2.933,0,0,1-1.2-.247,2.036,2.036,0,0,1-.862-.677,1.654,1.654,0,0,1-.3-.976h.831a1.078,1.078,0,0,0,.418.9,1.761,1.761,0,0,0,1.121.329,1.622,1.622,0,0,0,1-.266.868.868,0,0,0,.348-.727.856.856,0,0,0-.322-.712A3.743,3.743,0,0,0-2255.81,656.316Z" transform="translate(2266.267 -652.76)" fill="#1a1818"/>
            <path id="Path_38190" data-name="Path 38190" d="M-2240.78,656.824v2.451h-.825v-6.26h2.309a2.315,2.315,0,0,1,1.611.525,1.776,1.776,0,0,1,.582,1.388,1.758,1.758,0,0,1-.569,1.4,2.43,2.43,0,0,1-1.633.493Zm0-.675h1.484a1.481,1.481,0,0,0,1.015-.313,1.14,1.14,0,0,0,.353-.9,1.176,1.176,0,0,0-.353-.895,1.388,1.388,0,0,0-.967-.349h-1.531Z" transform="translate(2255.442 -652.928)" fill="#1a1818"/>
            <path id="Path_38191" data-name="Path 38191" d="M-2224.321,659.275h-.827v-6.26h.827Z" transform="translate(2244.6 -652.928)" fill="#1a1818"/>
            <path id="Path_38192" data-name="Path 38192" d="M-2216.015,656.742h-1.47v2.533h-.83v-6.26h2.073a2.451,2.451,0,0,1,1.627.481,1.735,1.735,0,0,1,.57,1.4,1.694,1.694,0,0,1-.315,1.02,1.9,1.9,0,0,1-.88.65l1.471,2.657v.052h-.886Zm-1.47-.674h1.269a1.437,1.437,0,0,0,.979-.319,1.081,1.081,0,0,0,.363-.852,1.134,1.134,0,0,0-.345-.892,1.472,1.472,0,0,0-1-.315h-1.264Z" transform="translate(2240.099 -652.928)" fill="#1a1818"/>
            <path id="Path_38193" data-name="Path 38193" d="M-2201.408,659.275h-.826v-6.26h.826Z" transform="translate(2229.505 -652.928)" fill="#1a1818"/>
            <path id="Path_38194" data-name="Path 38194" d="M-2190.579,659.275h-.83l-3.152-4.825v4.825h-.829v-6.26h.829l3.161,4.845v-4.845h.821Z" transform="translate(2224.996 -652.928)" fill="#1a1818"/>
            <path id="Path_38195" data-name="Path 38195" d="M-2172.761,658.286a1.921,1.921,0,0,1-.887.682,3.608,3.608,0,0,1-1.327.225,2.571,2.571,0,0,1-1.359-.359,2.389,2.389,0,0,1-.917-1.021,3.522,3.522,0,0,1-.334-1.535v-.546a3.283,3.283,0,0,1,.662-2.192,2.294,2.294,0,0,1,1.854-.78,2.377,2.377,0,0,1,1.578.5,2.187,2.187,0,0,1,.731,1.421h-.826a1.364,1.364,0,0,0-1.479-1.247,1.462,1.462,0,0,0-1.258.583,2.836,2.836,0,0,0-.432,1.689v.512a2.672,2.672,0,0,0,.481,1.676,1.561,1.561,0,0,0,1.3.621,2.876,2.876,0,0,0,.812-.1,1.251,1.251,0,0,0,.576-.348v-1.4h-1.449v-.676h2.271Z" transform="translate(2213.267 -652.76)" fill="#1a1818"/>
            <path id="Path_38196" data-name="Path 38196" d="M-2148.791,658.286a1.92,1.92,0,0,1-.887.682,3.609,3.609,0,0,1-1.328.225,2.573,2.573,0,0,1-1.359-.359,2.4,2.4,0,0,1-.918-1.021,3.547,3.547,0,0,1-.333-1.535v-.546a3.284,3.284,0,0,1,.661-2.192,2.3,2.3,0,0,1,1.854-.78,2.383,2.383,0,0,1,1.579.5,2.19,2.19,0,0,1,.73,1.421h-.825a1.366,1.366,0,0,0-1.479-1.247,1.462,1.462,0,0,0-1.258.583,2.85,2.85,0,0,0-.433,1.689v.512a2.672,2.672,0,0,0,.482,1.676,1.563,1.563,0,0,0,1.3.621,2.89,2.89,0,0,0,.813-.1,1.27,1.27,0,0,0,.576-.348v-1.4h-1.451v-.676h2.271Z" transform="translate(2197.475 -652.76)" fill="#1a1818"/>
            <path id="Path_38197" data-name="Path 38197" d="M-2133.156,656.742h-1.47v2.533h-.83v-6.26h2.073a2.45,2.45,0,0,1,1.626.481,1.733,1.733,0,0,1,.571,1.4,1.688,1.688,0,0,1-.316,1.02,1.886,1.886,0,0,1-.879.65l1.47,2.657v.052h-.885Zm-1.47-.674h1.268a1.44,1.44,0,0,0,.98-.319,1.081,1.081,0,0,0,.363-.852,1.132,1.132,0,0,0-.346-.892,1.471,1.471,0,0,0-1-.315h-1.265Z" transform="translate(2185.512 -652.928)" fill="#1a1818"/>
            <path id="Path_38198" data-name="Path 38198" d="M-2116.012,656.382h-2.714V658.6h3.152v.676h-3.977v-6.26h3.934v.674h-3.108v2.017h2.714Z" transform="translate(2175.035 -652.928)" fill="#1a1818"/>
            <path id="Path_38199" data-name="Path 38199" d="M-2102.6,657.637h-2.623l-.589,1.638h-.853l2.392-6.26h.722l2.4,6.26H-2102Zm-2.374-.675h2.13l-1.067-2.928Z" transform="translate(2166.543 -652.928)" fill="#1a1818"/>
            <path id="Path_38200" data-name="Path 38200" d="M-2086.342,653.689h-2.014v5.586h-.82v-5.586h-2.008v-.674h4.842Z" transform="translate(2156.346 -652.928)" fill="#1a1818"/>
            <path id="Path_38201" data-name="Path 38201" d="M-2070.735,656.382h-2.713V658.6h3.152v.676h-3.978v-6.26h3.934v.674h-3.108v2.017h2.713Z" transform="translate(2145.206 -652.928)" fill="#1a1818"/>
            <path id="Path_38202" data-name="Path 38202" d="M-2057.314,656.742h-1.47v2.533h-.83v-6.26h2.072a2.453,2.453,0,0,1,1.627.481,1.733,1.733,0,0,1,.571,1.4,1.69,1.69,0,0,1-.316,1.02,1.891,1.891,0,0,1-.879.65l1.47,2.657v.052h-.886Zm-1.47-.674h1.268a1.437,1.437,0,0,0,.979-.319,1.077,1.077,0,0,0,.362-.852,1.136,1.136,0,0,0-.344-.892,1.475,1.475,0,0,0-1-.315h-1.263Z" transform="translate(2135.549 -652.928)" fill="#1a1818"/>
            <path id="Path_38203" data-name="Path 38203" d="M-2036.493,658.6h2.968v.676h-3.8v-6.26h.83Z" transform="translate(2120.863 -652.928)" fill="#1a1818"/>
            <path id="Path_38204" data-name="Path 38204" d="M-2022.434,659.275h-.827v-6.26h.827Z" transform="translate(2111.599 -652.928)" fill="#1a1818"/>
            <path id="Path_38205" data-name="Path 38205" d="M-2015.512,658.179l1.788-5.164h.9l-2.322,6.26h-.73l-2.318-6.26h.9Z" transform="translate(2108.259 -652.928)" fill="#1a1818"/>
            <path id="Path_38206" data-name="Path 38206" d="M-1998.994,659.275h-.825v-6.26h.825Z" transform="translate(2096.156 -652.928)" fill="#1a1818"/>
            <path id="Path_38207" data-name="Path 38207" d="M-1988.163,659.275h-.83l-3.152-4.825v4.825h-.83v-6.26h.83l3.16,4.845v-4.845h.822Z" transform="translate(2091.647 -652.928)" fill="#1a1818"/>
            <path id="Path_38208" data-name="Path 38208" d="M-1970.346,658.286a1.91,1.91,0,0,1-.887.682,3.605,3.605,0,0,1-1.328.225,2.568,2.568,0,0,1-1.358-.359,2.382,2.382,0,0,1-.917-1.021,3.529,3.529,0,0,1-.335-1.535v-.546a3.288,3.288,0,0,1,.661-2.192,2.3,2.3,0,0,1,1.854-.78,2.379,2.379,0,0,1,1.579.5,2.186,2.186,0,0,1,.731,1.421h-.825a1.366,1.366,0,0,0-1.48-1.247,1.46,1.46,0,0,0-1.257.583,2.844,2.844,0,0,0-.433,1.689v.512a2.668,2.668,0,0,0,.482,1.676,1.561,1.561,0,0,0,1.3.621,2.886,2.886,0,0,0,.813-.1,1.267,1.267,0,0,0,.576-.348v-1.4h-1.449v-.676h2.27Z" transform="translate(2079.918 -652.76)" fill="#1a1818"/>
          </g>
        </g>
      </g>
    </g>
  </g>
</svg>
