<svg xmlns="http://www.w3.org/2000/svg" width="69.422" height="68.511" viewBox="0 0 69.422 68.511">
  <g id="Group_74113" data-name="Group 74113" transform="translate(-304.817 -2646.516)">
    <circle id="Ellipse_14" data-name="Ellipse 14" cx="6" cy="6" r="6" transform="translate(320.383 2648.016)" fill="none" stroke="#007ce2" stroke-linecap="round" stroke-linejoin="round" stroke-width="3"/>
    <path id="Rectangle_146684" data-name="Rectangle 146684" d="M348.586,2654.908v-2.065a3.067,3.067,0,0,1,3.068-3.067h24.825a3.068,3.068,0,0,1,3.068,3.067v19.131a3.069,3.069,0,0,1-3.068,3.068H351.654" transform="translate(-6.808 -0.283)" fill="none" stroke="#ff6158" stroke-linecap="round" stroke-linejoin="round" stroke-width="3"/>
    <line id="Line_3315" data-name="Line 3315" x2="12.562" transform="translate(351.765 2657.791)" fill="none" stroke="#ff6158" stroke-linecap="round" stroke-linejoin="round" stroke-width="3"/>
    <line id="Line_3316" data-name="Line 3316" x2="5.442" transform="translate(351.765 2665.508)" fill="none" stroke="#ff6158" stroke-linecap="round" stroke-linejoin="round" stroke-width="3"/>
    <path id="Path_38011" data-name="Path 38011" d="M319.865,2674.509l-2.838,14.3-5.537,22.874a3.331,3.331,0,0,0,3.237,4.114h0a3.33,3.33,0,0,0,3.237-2.545l4.844-19.945,4.154,19.634a3.33,3.33,0,0,0,3.258,2.642h0a3.331,3.331,0,0,0,3.269-3.972l-4.47-22.8,2.142-13.923,6.319-.321,8.008-7.165a3.038,3.038,0,0,0,.326-4.189h0a3.038,3.038,0,0,0-4.382-.337l-5.986,5.373h-19.86a6.653,6.653,0,0,0-5.817,3.423l-3.454,6.216,4.284,5.569" transform="translate(0 -2.268)" fill="none" stroke="#007ce2" stroke-linecap="round" stroke-linejoin="round" stroke-width="3"/>
  </g>
</svg>
