<svg xmlns="http://www.w3.org/2000/svg" width="79.5" height="59.981" viewBox="0 0 79.5 59.981">
  <g id="Group_73901" data-name="Group 73901" transform="translate(1.5 -9.881)">
    <path id="Path_37901" data-name="Path 37901" d="M70.9,55.505a1.6,1.6,0,0,0-1.452,2.3l-.016.007a16.442,16.442,0,0,1,0,14.017l.016.008a1.608,1.608,0,1,0,2.967,1.227,19.654,19.654,0,0,0,0-16.483A1.6,1.6,0,0,0,70.9,55.505Z" transform="translate(-13.928 -11.952)" fill="#ff6158"/>
    <path id="Path_37902" data-name="Path 37902" d="M81.924,51.417a1.605,1.605,0,0,0-1.455,2.3l-.008,0a22.89,22.89,0,0,1,0,20.167l.008,0a1.6,1.6,0,0,0-.157.684,1.611,1.611,0,0,0,3.109.595,26.078,26.078,0,0,0,0-22.731A1.609,1.609,0,0,0,81.924,51.417Z" transform="translate(-17.073 -10.929)" fill="#ff6158"/>
    <path id="Path_37903" data-name="Path 37903" d="M94.689,48.285a1.467,1.467,0,0,0-.06-.135h0a1.608,1.608,0,0,0-2.911,1.369l-.008,0a31.121,31.121,0,0,1,0,26.471l.008,0a1.608,1.608,0,0,0,2.911,1.369h0c.021-.044.043-.088.06-.135a34.306,34.306,0,0,0,0-28.945Z" transform="translate(-19.891 -9.886)" fill="#ff6158"/>
    <path id="Path_37904" data-name="Path 37904" d="M31.843,68.362V61.744h3.443a8.6,8.6,0,0,0,8.663-8.529V47.172h2.946a1.765,1.765,0,0,0,1.778-1.743,1.713,1.713,0,0,0-.131-.678L43.948,33.377s-.473-4.713-.906-6.517c-1.911-8.115-11.106-15.479-21.077-15.479A21.8,21.8,0,0,0,0,33.007,21.464,21.464,0,0,0,8.4,50.012V68.362M34.305,38.221a2.957,2.957,0,1,1,3-2.956A2.981,2.981,0,0,1,34.305,38.221Z" fill="none" stroke="#007ce2" stroke-linecap="round" stroke-width="3"/>
  </g>
</svg>
