<svg xmlns="http://www.w3.org/2000/svg" width="62.94" height="66.667" viewBox="0 0 62.94 66.667">
  <g id="Group_73902" data-name="Group 73902" transform="translate(-244.742 -2246.873)">
    <path id="Path_37905" data-name="Path 37905" d="M281.695,2281.123c-7.145,11.5-19.987,6.711-20.816-8.079-.683-12.16,6.617-15.507,10.586-16.428a2.42,2.42,0,0,1,2.7,1.359c.543,1.088,1.941,2.642,5.359,4.506a8.694,8.694,0,0,1,4.349,10.563" transform="translate(3.157 1.76)" fill="none" stroke="#007ce2" stroke-linecap="round" stroke-linejoin="round" stroke-width="3"/>
    <path id="Path_37906" data-name="Path 37906" d="M246.326,2304.89s-1.511-7.574,12.118-13.515c12.116-5.281,10.874-11.185,10.874-11.185" transform="translate(0 6.885)" fill="none" stroke="#007ce2" stroke-linecap="round" stroke-linejoin="round" stroke-width="3"/>
    <path id="Path_37907" data-name="Path 37907" d="M275.822,2295s-.907,13.828,14.124,14.763a14.1,14.1,0,0,0,14.919-16.9,26.176,26.176,0,0,0-2.635-6.868c-8.389-15.535-10.253-14.913-12.428-26.409s-13.981-12.584-21.438-9.942c-5.181,1.835-9.632,9.01-10.564,21.126s-8.233,10.253-6.99,31.381" transform="translate(0.953)" fill="none" stroke="#007ce2" stroke-linecap="round" stroke-linejoin="round" stroke-width="3"/>
    <circle id="Ellipse_12" data-name="Ellipse 12" cx="4.66" cy="4.66" r="4.66" transform="translate(284.852 2279.775)" fill="none" stroke="#ff6158" stroke-linecap="round" stroke-linejoin="round" stroke-width="3"/>
  </g>
</svg>
